<svg xmlns="http://www.w3.org/2000/svg" width="1650" height="1650"><path fill="#075BA8" d="M755.578 106.797c16.001 14.556 20.605 42.434 26.529 62.389l1.315 4.416.64 2.15c1.788 5.922 3.852 11.716 6.029 17.503C791 196 791 196 791 199h67l3-12c.852-2.917 1.72-5.815 2.637-8.71l.728-2.326q1.156-3.672 2.322-7.339l.809-2.545C880.323 125.763 880.323 125.763 890 110l1.563-2.672c1.709-2.296 2.766-3.29 5.437-4.328 5.499-.303 10.65.89 16 2q3.605.697 7.21 1.39c27.312 5.384 27.312 5.384 31.595 9.231 10.043 17.045 5.105 42.222 3.258 60.942q-.554 5.72-1.09 11.44l-.263 2.781c-.832 9.06-1.315 18.128-1.71 27.216l1.598.502c6.129 1.979 12.028 4.348 17.949 6.877l2.952 1.25q4.627 1.962 9.251 3.934 4.647 1.973 9.294 3.943 2.88 1.222 5.76 2.448l2.64 1.122 2.307.982L1006 240l2.66 1.12c2.235.994 2.235.994 4.336.896 3.202-1.623 4.984-4.438 7.067-7.266q1.463-1.926 2.933-3.848l1.507-1.977c2.29-2.944 4.696-5.781 7.122-8.613a494 494 0 0 0 9.813-11.812c4.78-5.864 9.854-11.422 15.057-16.911a553 553 0 0 0 2.936-3.123c7.196-7.693 15.81-16.401 26.569-18.466 2.56 1.054 4.425 2.049 6.688 3.563l1.926 1.222A355 355 0 0 1 1101 179l2.388 1.598c4.87 3.273 9.704 6.595 14.52 9.948a685 685 0 0 0 5.487 3.77l2.73 1.871 2.258 1.543C1130 199 1130 199 1131 201c2.304 24.852-12.922 47.67-24.375 68.688-7.427 12.674-7.427 12.674-12.625 26.312 1.312 3.508 3.507 5.776 6.11 8.417l2.57 2.618 2.78 2.797q1.429 1.44 2.856 2.882 2.988 3.013 5.987 6.014c2.563 2.569 5.11 5.153 7.653 7.742q2.938 2.979 5.899 5.937a715 715 0 0 1 4.187 4.253l2.588 2.57c1.124 1.13 1.124 1.13 2.27 2.285 1.964 1.73 1.964 1.73 4.232 1.287a91 91 0 0 0 6.622-3.173l2.81-1.475 2.998-1.591 3.113-1.636q7.21-3.796 14.4-7.63c36.66-19.51 36.66-19.51 51.925-22.297l2.656-.73c3.667-.59 5.807-.495 9.344.73 5.512 4.89 9.152 11.806 13 18q1.926 2.997 3.863 5.988c2.981 4.623 5.921 9.27 8.831 13.938A232 232 0 0 0 1264 348c.957 6.697-1.392 11.53-5 17-3.466 4.208-7.184 8.111-11 12l-2.328 2.445c-4.624 4.773-9.537 9.018-14.719 13.172-3.195 2.578-6.328 5.221-9.453 7.883-4.025 3.424-8.08 6.8-12.187 10.125-5.267 4.283-10.312 8.786-15.313 13.375 2.224 6.957 4.835 13.677 7.633 20.422l2.691 6.543q2.108 5.11 4.22 10.217 2.049 4.962 4.089 9.927l1.281 3.085 1.184 2.883 1.043 2.522c.878 2.453 1.413 4.837 1.859 7.401l2.511-.383c9.04-1.339 18.076-2.349 27.177-3.18l2.11-.195c11.057-1.019 22.102-1.886 33.202-2.242l3.434-.125c6.178-.121 12.242.28 18.379.938l2.102.212c2.05.246 4.057.583 6.085.975l2.176.366c2.345.59 3.893 1.17 5.824 2.634 1.816 3.423 2.504 6.968 3.25 10.75l.713 3.215A457 457 0 0 1 1327 510l.642 3.236c4.99 25.52 4.99 25.52 2.388 30.693-12.886 18.232-47.445 23.281-67.618 29.266-6.977 2.078-13.852 4.181-20.531 7.112C1240 581 1240 581 1237 581v68l10 2a285 285 0 0 1 9.066 2.688l2.512.783q3.995 1.255 7.985 2.529l2.755.876c49.265 15.707 49.265 15.707 61.682 28.124 1.597 3.798.631 7.278-.074 11.23l-.375 2.133c-.403 2.277-.82 4.55-1.238 6.824l-.424 2.33c-.94 5.166-1.908 10.325-2.889 15.483l-.6 3.197c-.461 2.4-.95 4.79-1.463 7.178l-.785 3.71c-1.71 4.327-3.953 5.939-8.162 7.807-7.621 2.703-15.386 2.61-23.365 2.545l-2.23-.003c-15.652-.045-31.17-1.428-46.732-3.01l-2.754-.279a820 820 0 0 1-5.075-.535c-5.306-.553-10.498-.684-15.834-.61-10.827 25.593-10.827 25.593-21.5 51.25l-1.111 2.678c-1.748 3.907-1.748 3.907-2.389 8.072 1.805 1.668 1.805 1.668 4.188 3.438a357 357 0 0 1 12.25 10 539 539 0 0 0 12.062 10c4.82 3.917 9.386 8.062 13.91 12.314 2.53 2.374 5.08 4.68 7.766 6.877 3.73 3.132 6.718 6.635 9.824 10.371l2.117 2.527c9.505 11.576 9.505 11.576 8.883 18.473-1.17 2.485-1.17 2.485-2.824 5.105l-1.85 2.957-2.014 3.125-2.044 3.214c-4.323 6.735-8.76 13.386-13.393 19.912l-1.573 2.24c-2.708 3.726-4.978 6.532-9.302 8.447-20.91 2.201-43.402-13.647-61-23q-8.518-4.5-17.05-8.97a536 536 0 0 1-5.208-2.796l-2.68-1.422-2.152-1.167c-2.46-.83-3.475-.52-5.91.355-2.008 1.562-2.008 1.562-3.955 3.583l-2.316 2.297-2.475 2.503-2.57 2.568a1929 1929 0 0 0-5.374 5.403 2108 2108 0 0 1-8.203 8.216l-5.228 5.25-2.469 2.466c-4.283 4.336-8.035 8.636-11.41 13.714l5.411 10.451q1.452 2.803 2.9 5.607c2.798 5.404 5.598 10.805 8.494 16.157 8.61 15.93 17.627 32.9 21.195 50.785l.86 3.055c.632 3.689.615 5.476-.86 8.945-4.465 4.694-10.114 8.06-15.571 11.475-2.883 1.81-5.692 3.717-8.502 5.637a322 322 0 0 1-5.525 3.646 139 139 0 0 0-6.46 4.484c-7.583 5.406-7.583 5.406-12.442 4.633-16.029-5.599-27.312-20.03-37.5-32.875-2.323-2.842-4.662-5.67-7-8.5-6.682-8.099-6.682-8.099-9.582-11.684C1024.464 999.7 1019.321 993.8 1014 988a149 149 0 0 0-19.375 6.871l-2.576 1.102a2972 2972 0 0 0-8.049 3.465 9186 9186 0 0 1-8.05 3.453q-2.488 1.068-4.975 2.14a715 715 0 0 1-12.436 5.22l-2.486 1.015C954 1012 954 1012 952 1012l.351 3.266q.654 6.1 1.303 12.2.28 2.622.562 5.242c1.669 15.516 2.984 30.918 3.024 46.533.01 2.257.041 4.514.072 6.77.167 22.27.167 22.27-4.985 29.258-3.024 2.25-5.61 2.813-9.296 3.583l-2.049.439c-2.158.459-4.32.896-6.482 1.334q-2.133.45-4.266.906c-30.076 6.358-30.076 6.358-35.285 3.242-18.585-16.384-24.056-52.478-31.044-75.434l-1.03-3.374-.883-2.918c-1.212-3.723-2.617-7.381-3.992-11.047h-66l-6 19.563c-18.996 61.433-18.996 61.433-33 75.437a99 99 0 0 1-8.875-1l-2.754-.412c-8.178-1.283-16.276-2.93-24.371-4.65l-3.667-.78c-13.468-2.944-13.468-2.944-15.88-6.33l-1.203-2.578-1.234-2.547c-10.237-27.244.29-68.323 2.984-96.703l-1.645-.521c-5.654-1.833-11.106-3.965-16.562-6.315l-2.566-1.095q-4.02-1.717-8.04-3.444-3.993-1.709-7.989-3.415l-5.137-2.197Q646.555 990.946 637 987a245 245 0 0 0-13.187 15.625c-8.105 10.448-16.877 20.34-25.778 30.113a201 201 0 0 0-3.976 4.555c-7.064 8.291-16.618 17.931-27.059 21.707-6.682.024-11.056-3.188-16.375-6.812l-2.627-1.75c-8.442-5.654-16.766-11.483-24.998-17.438l-2.422-1.73C519 1030 519 1030 518.25 1028.313c-2.134-19.74 9.272-38.961 18.188-55.876q2.156-4.126 4.308-8.253l1.064-2.034c3.827-7.335 7.51-14.74 11.19-22.15l1.853-3.21c1.44-2.625 1.44-2.625.485-4.684-1.615-2.542-3.467-4.474-5.604-6.6l-2.67-2.668-2.884-2.854q-1.476-1.47-2.951-2.942a3884 3884 0 0 0-7.763-7.713q-3.966-3.938-7.923-7.884A10934 10934 0 0 0 510 886c-8.172 4.03-16.235 8.175-24.187 12.625-53.267 29.32-53.267 29.32-69.813 26.375-4.822-3.827-8.147-9.16-11.625-14.187l-1.838-2.656c-4.06-5.911-8.064-11.856-11.912-17.907l-1.424-2.16c-3.079-4.962-3.8-8.254-3.201-14.09 3.81-13.986 19.243-25.974 30.016-34.586 3.387-2.74 6.687-5.567 9.984-8.414 4.158-3.588 8.347-7.117 12.625-10.562 6.033-4.892 11.691-10.15 17.375-15.438-4.877-13.267-10.107-26.385-15.375-39.5l-2.52-6.285Q435.055 751.606 432 744c-5.86-.066-11.61.037-17.45.621l-2 .195q-3.12.304-6.238.621C341.58 751.896 341.58 751.896 328 742c-1.055-2.315-1.055-2.315-1.66-5.066l-.712-3.124-.69-3.372-.746-3.47A698 698 0 0 1 322 716l-.72-3.673a584 584 0 0 1-1.905-10.577l-.61-3.295c-1.2-7.557-1.2-7.557.942-11.975L322 684l1.613-1.871c18.863-17.388 53.063-22.772 77.18-30.12 4.085-1.285 8.144-2.655 12.207-4.009v-67l-19.437-5.937C334.195 556.743 334.195 556.743 322 545c-.755-.642-1.51-1.284-2.29-1.945-2.757-4.924-1.324-9.356-.335-14.742l.59-3.438A674 674 0 0 1 322 514l.7-3.697c.689-3.568 1.422-7.123 2.175-10.678l.666-3.346c1.689-7.5 1.689-7.5 4.967-10.818 9.199-3.848 17.616-4.98 27.555-4.899l3.824.01c13.52.139 26.95 1.542 40.38 3.004 9.972 1.073 19.699 1.698 29.733 1.424q3.657-8.69 7.306-17.383 1.237-2.944 2.475-5.888c5.265-12.506 10.38-25.052 15.219-37.729-9.67-8.346-9.67-8.346-19.5-16.5-49.302-40.148-49.302-40.148-51.969-56.348.663-4.46 2.677-7.525 5.094-11.277l1.467-2.335c3.952-6.213 8.087-12.302 12.283-18.353l1.764-2.549c7.922-11.24 7.922-11.24 13.103-12.302 23.804.256 44.678 14.264 64.992 25.415 5.587 3.065 11.173 6.125 16.829 9.062l1.93 1.041c3.834 1.957 5.914 2.447 10.007 1.146 2.223-1.648 2.223-1.648 4.284-3.83l2.457-2.457 2.61-2.674 2.715-2.732q3.564-3.594 7.108-7.207c2.404-2.444 4.818-4.877 7.232-7.31q6.368-6.428 12.71-12.88A797 797 0 0 1 557 297c-1.3-4.233-2.918-7.957-5.055-11.832l-1.845-3.381-.976-1.777C522.43 231.295 522.43 231.295 519 210l-.418-2.547c-.341-3.76-.464-6.332 1.933-9.378 2.213-1.87 4.487-3.444 6.923-5.012l2.584-1.78c2.636-1.799 5.301-3.545 7.978-5.283q2.418-1.599 4.836-3.2a600 600 0 0 1 10.393-6.667c1.71-1.094 3.384-2.246 5.056-3.399 3.71-2.37 5.344-2.439 9.715-1.734 16.48 5.908 27.207 20.289 37.938 33.375l1.858 2.26a900 900 0 0 1 9.391 11.615 714 714 0 0 0 9.375 11.5l1.32 1.61a63.4 63.4 0 0 0 7.794 7.832l1.891 1.604L639 242a50542 50542 0 0 0 25.29-10.43c11.603-4.782 23.199-9.572 34.71-14.57l-.351-3.677q-.655-6.88-1.303-13.76-.279-2.955-.562-5.909c-6.54-68.465-6.54-68.465 3.216-80.654 3.802-1.917 7.702-2.587 11.875-3.312l3.485-.696q3.561-.7 7.133-1.35a414 414 0 0 0 9.94-1.966q2.94-.593 5.88-1.176l2.743-.56c6.193-1.142 9.261-.81 14.522 2.857"/><path fill="#FEFEFE" d="M1060 486c3.587 3.175 5.632 6.681 7.688 10.938l1.024 2.089c2.805 5.801 5.42 11.684 7.976 17.598l1.078 2.488c5.262 12.378 9.255 24.889 12.359 37.95l.522 2.17c2.837 11.834 5.145 23.645 6.353 35.767l.277 2.522c2.396 24.347 2.308 50.443-2.277 74.478l-.602 3.364c-5.927 32.847-17.226 63.458-33.398 92.636-4 0-4 0-5.604-1.13l-1.569-1.605-1.801-1.812-1.917-1.988-2.01-2.035a1322 1322 0 0 1-6.349-6.492q-3.15-3.214-6.306-6.418a951 951 0 0 1-3.914-4c-3.723-3.804-7.581-7.355-11.612-10.83-2.901-2.556-5.613-5.28-8.324-8.034l-1.724-1.735q-3.59-3.617-7.17-7.242c-10.713-11.413-10.713-11.413-23.134-20.75-3.674-2.513-6.37-4.583-7.566-8.929.472-8.734 3.477-17.135 6.003-25.445 2.938-10.474 3.356-20.917 3.31-31.742l-.007-2.062c-.055-10.865-.728-21.187-3.306-31.751l-.683-2.829C974.906 581.326 972.33 571.58 969 562l1.95-1.582a1054 1054 0 0 0 17.204-14.325c3.476-2.95 6.99-5.849 10.534-8.718 4.4-3.578 8.608-7.323 12.8-11.14 3.397-3.022 6.928-5.86 10.461-8.72 3.572-2.944 7.063-5.972 10.551-9.015A574 574 0 0 1 1060 486M876 787c2.41 1.969 2.41 1.969 5.063 4.5 3.632 3.408 7.305 6.685 11.187 9.813 6.421 5.188 12.624 10.617 18.85 16.036 7.944 6.9 15.962 13.717 24.004 20.505 4.004 3.382 7.984 6.792 11.958 10.208 6.259 5.379 12.581 10.676 18.938 15.938-1.218 3.654-2.016 3.858-5.312 5.637l-2.733 1.487-2.955 1.563-3.033 1.623c-30.332 16.095-62.024 26.881-96.158 31.315-2.363.316-4.711.671-7.063 1.059C790.996 915.272 732.785 898.376 682 872c0-4.177 2.317-5.839 5.063-8.687l3.058-3.254 1.507-1.595a190 190 0 0 0 4.997-5.589 467 467 0 0 1 7.75-8.687 231 231 0 0 0 8.875-10.438c4.1-5.075 8.485-9.814 12.954-14.56 3.223-3.44 6.29-6.94 9.234-10.628Q737.71 805.776 740 803l1.598-1.964a332 332 0 0 1 5.402-6.348l1.69-2.09c1.692-1.907 3.093-3.334 5.31-4.598 3.259-.055 5.96.902 9 2l3.852 1q3.75.995 7.5 2c12.281 2.854 24.603 3.408 37.148 3.375l2.376-.002c18.155-.057 35.02-2.436 52.19-8.53 6.222-2.18 6.222-2.18 9.934-.843M581 479c7.635 6.54 15.183 13.144 22.58 19.954a368 368 0 0 0 8.357 7.483c2.423 2.1 4.805 4.236 7.16 6.41l1.686 1.556a382 382 0 0 1 3.404 3.205c2.436 2.305 4.692 4.315 7.532 6.122 2.533 1.618 3.902 2.585 5.281 5.27-.225 4.239-1.085 8.13-2.04 12.254-3.864 17.335-.412 36.4 8.18 51.789 1.036 2.357 1.093 4.077 1.048 6.644l-.02 2.387c-.135 2.358-.37 4.64-.66 6.98-3.312 28.962.939 59.4 13.3 85.872C658 698 658 698 658.02 700.145c-1.576 2.867-3.794 4.498-6.332 6.543l-1.632 1.322c-4.561 3.67-9.243 7.177-13.947 10.662a482 482 0 0 0-9.734 7.515 3362 3362 0 0 1-36.75 28.563l-2.72 2.096-2.553 1.95-2.256 1.73c-1.97 1.386-3.913 2.464-6.096 3.474-18.302-32.236-29.826-68.187-34-105l-.304-2.431c-1.082-9.812-.938-19.71-.946-29.569l-.004-2.955c.006-20.473 1.424-40.092 6.254-60.045q.555-2.418 1.105-4.836C554.8 530.664 566.3 504.256 581 479"/><path fill="#FBC30E" d="M949.398 591.742c5.67 4.453 8.08 11.977 9.172 18.844 2.244 19.708 1.256 40.65-10.758 57.226-4.665 5.563-10.84 11.864-17.812 14.188l-1 3c-1.496 1.402-1.496 1.402-3.437 2.938C910.25 700.984 899.61 719.63 890 737l-1.18 2.083a296 296 0 0 0-3.07 5.605l-1.703 3.136c-1.537 3.9-1.537 3.9-.047 11.176H743c6.686-16.716 19.772-27.622 35.738-35.32 5.312-2.23 10.613-3.587 16.262-4.68l1-6-2.375-.875C791 711 791 711 789 709c.166-3.23.553-4.582 2.938-6.812C794 701 794 701 796 701v-10l-3.969-.371C766.807 687.796 742.195 674.55 726 655c-4.757-6.312-8.485-12.456-11-20h192c-9.412 23.53-26.621 37.781-49 48l-2.414 1.238c-4.869 2.435-9.945 3.734-15.211 5.012l-2.174.532c-4.506 1.03-8.58 1.388-13.201 1.218.013 3.423.147 6.675 1 10 2.917 1.876 2.917 1.876 6 3 .875 2.688.875 2.688 1 5l-3.437 1.688c-3.118 1.734-3.118 1.734-4.5 5.062L825 718l3.5.188c15.723 1.785 31.105 8.838 42.5 19.812v2h2l.758-2.543c7.966-22.171 25.731-41.279 40.742-58.957 13.567-15.328 13.567-15.328 24.5-32.5l1.46-2.816c3.388-7.177 5.082-14.262 3.54-22.184-2.13-3.229-3.225-4.714-6.875-6.062-4.193.083-5.919 1.413-9.125 4.062l-1.875 2.75C924 624 924 624 922.047 624.387c-2.172.05-2.172.05-6.047-.387-2-2-2-2-2.375-5 .232-7.94 4.668-16.444 10.3-21.848 7.694-6.85 15.595-11.633 25.473-5.41"/><path fill="#2E3192" d="m754.142 1354.874 3.32-.008 3.679.007 3.884-.005q5.355-.005 10.71.001 5.767.002 11.536-.004 11.307-.005 22.613 0 9.188.003 18.374.001h2.637l5.304-.001q24.891-.004 49.782.006 21.374.005 42.747-.001a97366 97366 0 0 1 54.88-.004h2.627q9.18.002 18.357-.002 11.183-.004 22.364.003 5.71.005 11.417 0 6.18-.003 12.359.006l3.672-.007 3.329.008h2.883C1063 1355 1063 1355 1066 1356q.039 2.718.063 5.437l.035 3.06C1066 1367 1066 1367 1065 1368a86 86 0 0 1-4.562.562l-2.504.254-1.934.184-.044 1.94c-.075 2.917-.171 5.832-.268 8.747l-.069 3.053c-.338 9.317-.338 9.317-3.619 13.26-3.158 2.908-6.018 4.489-10 6l5.875 8.312 1.684 2.381 1.62 2.295 1.492 2.11c2.552 3.652 3.57 5.436 3.329 9.902-5.405 1.264-10.732 2.194-16 0-5.369-4.885-8.91-11.435-12.534-17.65-1.312-2.103-2.672-3.846-4.333-5.674-2.353-2.952-2.748-4.16-2.57-7.864l.066-2.542c.371-2.27.371-2.27 2.371-5.27a65 65 0 0 1 7.625-.688L1038 1387v-18h-26l-1 58h-15c-1-1-1-1-1.12-3.322l.006-3.116v-3.518l.016-3.83.005-3.896q.006-5.136.024-10.273.014-5.238.02-10.477c.01-6.856.029-13.712.049-20.568l-14 1-1 58h-16l-1-12-4 3c-3.727.618-7.478.464-11.25.437l-3.066.061c-6.337-.004-11.477-.667-16.684-4.498-4.11-5.163-5.15-8.998-5.187-15.5l-.043-3.469C923 1392 923 1392 925 1389l-2.117-.148-2.758-.227c-.905-.07-1.81-.14-2.742-.21C915 1388 915 1388 913 1386c-.23-2.094-.23-2.094-.187-4.5l.019-2.406C913 1377 913 1377 914 1375q8.944-.037 17.89-.055 3.045-.008 6.09-.02c2.912-.013 5.823-.018 8.735-.023l2.768-.015c2.173 0 4.345.05 6.517.113 1.666 1.666 1.171 3.66 1.188 5.937l.042 2.715C957 1386 957 1386 955 1388c-3.053.347-6.083.443-9.152.559-2.812.234-2.812.234-4.707 1.66-1.526 2.383-1.507 4.03-1.453 6.843l.011 2.66c.092 2.475.092 2.475 2.301 4.278 5.363 1.81 11.567 1.608 17 .25 2.496-1.56 2.964-2.5 4-5.25.276-3.295.276-3.295.195-6.953l-.015-3.661-.055-4.636L963 1369h-58l-1 58h-15c-1-1-1-1-1.12-3.322l.006-3.116v-3.518l.016-3.83.005-3.896q.006-5.136.024-10.273.014-5.238.02-10.477c.01-6.856.029-13.712.049-20.568l-13 1-.076 5.217q-.126 8.513-.263 17.027-.084 5.163-.158 10.328-.087 5.931-.187 11.862l-.05 3.762-.06 3.458-.048 3.062C874 1426 874 1426 873 1427c-2.53.073-5.033.092-7.562.062l-2.155-.013q-2.64-.02-5.283-.049l-1-10-4 2c-3.095.407-6.194.324-9.312.312l-2.514.05c-6.886.005-11.653-1.177-16.986-5.8-4.547-5.326-4.553-9.602-4.563-16.375l-.074-2.658c-.027-6.053.858-9.613 4.449-14.529 1.965-1.742 1.965-1.742 3.938-2.875l1.964-1.18c4.64-2.09 9.252-2.106 14.286-2.133l3.73-.042C851 1374 851 1374 853 1376c.23 2.348.23 2.348.188 5.062l-.02 2.723C853 1386 853 1386 852 1387c-3.324.538-6.657.966-9.996 1.402-3.105.329-3.105.329-5.004 2.598-.32 2.565-.32 2.565-.25 5.437l-.016 2.934c.082 2.86.082 2.86 2.266 5.629 4.686 1.354 9.495 1.55 14.063-.25 3.21-1.48 3.21-1.48 3.937-4.75.084-2.357.107-4.716.098-7.074l-.008-3.792-.027-4.822L857 1369h-49l-1 58h-16v-33l-20 1v10c-2.47 2.47-3.396 2.35-6.812 2.437-3.552-.113-5.115-.398-8.313-2.125-2.98-5.263-2.8-10.416-1.875-16.312 1.593-3.511 3.798-5.413 7.29-7.119 3.065-.996 5.666-1.2 8.886-1.295l3.506-.117 3.63-.094 3.69-.117q4.499-.141 8.998-.258v-11l-43-1v-12c2.54-1.27 4.297-1.125 7.142-1.126"/><path fill="#F59A18" d="M848 356c3.29 10.348-3.345 23.937-8.047 33.098-4.25 7.937-8.976 15.139-14.953 21.902l-2.113 2.441c-8.022 9.105-16.454 17.621-25.95 25.188-3.316 2.677-6.531 5.454-9.75 8.246A342 342 0 0 1 773 458.5c-9.862 7.653-19.288 15.83-28.512 24.238a427 427 0 0 1-5.383 4.805C718.184 506.043 701.087 530.9 697 559c-.244 4.914-.245 9.831-.25 14.75l-.003 2.105c.015 15.147 1.965 28.952 6.483 43.422C704 622 704 622 704 625c-16.364-.079-32.123-8.79-43.754-19.73-13.042-13.179-19.019-30.904-19.278-49.234.159-10.178 1.78-20.395 5.032-30.036l.988-2.996c16.135-45.299 56.995-67.754 97.794-87.916C774.621 420.336 803.452 404.756 828 382l1.832-1.633c7.327-6.829 13.162-15.752 18.168-24.367"/><path fill="#F7F9FC" d="m714.875 240.25 2.323.62c3.19.95 5.456 1.777 7.81 4.177C726 247 726 247 726 249l3.508-1.059 4.617-1.379 2.305-.697 2.265-.674 2.063-.618c4.645-1.187 9.315-1.72 14.089-2.054l3.42-.242 3.655-.25 3.803-.264q3.98-.276 7.959-.547 5.06-.346 10.119-.703 4.872-.34 9.744-.673l3.63-.256c6.621-.446 13.188-.698 19.823-.584 4 6.625 4 6.625 4 10q-6.343.504-12.687 1l-3.631.29-3.506.273-3.222.253c-2.647.165-5.302.184-7.954.184l1 13h3l2-2c4.784-.909 8.172-.516 12.313 2.063 5.516 6.029 8.134 12.17 8.12 20.343-.846 5.062-3.737 9.302-6.433 13.594-3.3-1.55-5.22-2.72-7-6 .166-3.154 1.025-5.046 2.563-7.812 1.851-4.107 1.735-6.714 1.437-11.188l-1-2c-3.72-.074-5.9-.023-8.678 2.56-5.204 7.078-5.038 13.453-4.697 22.002l.082 3.924q.106 4.758.293 9.514c-8.529-4.694-8.529-4.694-10.316-9.648l-.246-3.727-.317-3.773L782 289l-2.129.977c-6.001 2.139-12.571 2.05-18.371-.54-5.007-4.882-6.744-8.517-7.125-15.437.16-5.314 1.374-8.076 5.117-11.793 4.383-3.508 10.174-2.624 15.508-2.207 2.377.751 3.912 1.608 6 3v-11q-7.526.609-15.051 1.227-2.557.21-5.116.416-3.686.299-7.372.603l-2.292.183c-4.1.342-8.117.828-12.169 1.571l.547 1.746c3.762 12.051 7.312 24.122 10.41 36.362A363 363 0 0 0 755 312c-4.227-.811-7.444-1.447-11-4-1.666-3.319-2.56-6.793-3.5-10.375l-.867-3.08a757 757 0 0 1-1.758-6.363 438 438 0 0 0-2.652-9.198q-.831-2.805-1.66-5.609l-.786-2.634-.71-2.468-.627-2.143C731 264 731 264 731 259l-10 3c.325 6.073 1.646 11.274 3.563 17 1.945 5.866 3.089 10.808 2.437 17l-1 1c-6.083 0-9.428-2.375-14.18-6.016-2.13-2.322-2.49-3.892-2.82-6.984 3-2 3-2 6-2l-.875-2.957-1.125-3.856-1.125-3.832C711 268 711 268 711 265l-2.309.77L690 272c4.104 11.966 8.606 23.722 13.375 35.438q1.892 4.651 3.773 9.308l.871 2.127C710 323.775 710 323.775 710 326c-3.627-.092-6.65-.574-10-2-1.435-2.11-1.435-2.11-2.516-4.785l-1.24-3.004L695 313l-1.265-3.194a868 868 0 0 1-3.798-9.931c-2.788-7.387-5.62-14.707-8.937-21.875l-6 1 .743 1.623A2847 2847 0 0 1 691 314.5l1.42 3.197c2.075 4.713 4.091 9.363 5.58 14.303-3.986.004-7.32-.42-11-2-2.992-3.781-4.51-8.01-6.187-12.5l-2.997-7.371-1.437-3.668c-1.891-4.746-3.997-9.382-6.129-14.024C667 285.306 667 285.306 667 283l-2.555 1.313-3.32 1.687-3.305 1.688C655 289 655 289 653 289c5.71 11.874 12.083 23.287 18.671 34.693a635 635 0 0 1 5.016 8.87l1.325 2.378c.967 2.015 1.538 3.876 1.988 6.059-1.605-.06-3.21-.15-4.812-.25l-2.708-.14c-2.48-.61-2.48-.61-4.304-2.532C667 336 667 336 667 334h-2l-.77 1.719c-3.603 6.68-9.234 12.355-16.23 15.281-5.906.86-10.148-.773-15-4-3.888-3.689-4.586-6.716-5-12l-2.562-.125c-4.498-1.145-7.346-3.451-10.438-6.875-1.242-3.727-1.531-6.081-1-10 3.411-4.25 8.066-6.834 13-9l-2-3c-.555.323-1.11.645-1.68.978l-7.57 4.397-2.645 1.54-2.558 1.483-2.349 1.365A119 119 0 0 1 602 319c4.607 6.176 9.236 12.333 13.938 18.438l1.25 1.624q3.217 4.176 6.457 8.333c4.7 6.046 9.243 12.136 13.355 18.605-3.859.714-7.155.869-11 0-3.738-3.125-6.254-7.005-9-11a619 619 0 0 0-3.68-4.765 483 483 0 0 1-3.75-4.876 689 689 0 0 0-5.39-6.968l-1.391-1.784a755 755 0 0 0-2.654-3.382c-1.88-2.418-3.157-4.291-4.135-7.225-1.404.862-2.798 1.74-4.187 2.625l-2.356 1.477c-3.025 2.337-5.092 4.9-7.457 7.898q2.995 3.035 6 6.063l1.676 1.7c2.954 2.972 5.958 5.823 9.136 8.553 4.96 4.288 9.565 8.914 14.188 13.559l2.637 2.625 2.488 2.492 2.258 2.261C622 377 622 377 622 378c-4.144 1.005-7.75 1.527-12 1-2.849-1.993-5.101-4.439-7.437-7l-1.928-2.023A349 349 0 0 1 596 365l-2.312 2.375C591 370 591 370 588 372l.875 1.75L590 376l1.047 1.809c2.031 4.67 1.816 10.514.265 15.324-2.81 5.409-6.895 7.88-12.375 10.117-8.172 2.034-16.987 1.244-24.937-1.25l-1-6c3.75-1.125 3.75-1.125 6 0 7.463.74 13.397.752 19.61-3.71 2.12-1.967 2.381-3.211 2.702-6.103-.39-3.982-1.426-5.457-4.312-8.187-2.635-.88-2.635-.88-5-1l-1.937 3.25-1.09 1.828c-.994 1.964-1.522 3.775-1.973 5.922q-2.47.039-4.937.063l-2.778.035C557 388 557 388 556 387c.177-4.414.875-7.124 3.625-10.5 2.355-2.976 2.384-3.31 2.188-7.437L561 366c-3.256-.943-3.256-.943-7-1-5.223 3.561-6.349 8.177-8 14l-9-1c-.548-5.113-.43-8.017 2.625-12.25 3.533-4.251 7.076-6.984 12.375-8.75 4.837-.39 9.398-.648 13.938 1.188 2.427 2.132 4.31 4.086 6.062 6.812.105 2.664.105 2.664 0 5 7.5-2.332 7.5-2.332 13.188-7.5 2.012-3.135 2.012-3.135 1.664-5.457-1.107-2.656-2.622-4.21-4.664-6.23l-2.083-2.106c-2.165-1.756-3.312-2.645-6.105-2.707-1.805 1.463-1.805 1.463-3.375 3.5-1.824 1.965-1.824 1.965-3.625 3.5-3.886.076-6.661-1.074-10-3 .428-4.422 3.444-6.824 6.46-9.754l1.657-1.643a1193 1193 0 0 1 5.258-5.166q1.763-1.74 3.523-3.482 3.235-3.198 6.482-6.383A657 657 0 0 0 586 318c-4.546-1.173-9.33-1.541-14-1l-2 2c-3.503.38-5.363.402-8.375-1.5L560 316c4.493-4.729 4.493-4.729 8.238-5.402 6.37-.092 12.552 1.08 18.762 2.402l-4.812-3.375-2.708-1.898c-4.795-3.43-4.795-3.43-10.48-3.727l-2.363 1.188c-2.637.812-2.637.812-5.094-.235l-2.356-1.703-2.394-1.672L555 300v-2c5.002-2.45 8.296-3.435 14-3 8.408 3.29 15.476 8.64 22.344 14.375 2.545 1.919 2.545 1.919 5.5 1.375L599 310l1-3c1.768-1.236 1.768-1.236 4.102-2.46l2.64-1.41 2.883-1.505q3.02-1.611 6.04-3.227l3.164-1.688c5.097-2.749 10.135-5.6 15.171-8.46l2.901-1.645A5509 5509 0 0 0 659 274q-2.625-1.439-5.25-2.875l-2.953-1.617L648 268l-2.113-1.215c-3.778-1.572-8.468-.23-12.278.965-3.698.354-5.373-1.026-8.422-3.062-.975-.636-1.951-1.272-2.957-1.926L620 261v-2a252 252 0 0 1 4.125-2l2.32-1.125c7.656-2.622 14.532.976 21.491 4.105 4.202 2.076 8.166 4.596 12.052 7.211 2.744 1.781 4.444 2.84 7.766 2.66 2.636-.999 4.893-2.305 7.246-3.851l-1.5-2.875c-1.966-4.66-2.365-9.142-1.5-14.125 3.261-5.336 7.808-8.596 13.738-10.582 9.75-1.802 19.656-.758 29.137 1.832"/><path fill="#FDFEFE" d="M857 347c23.314 3.233 46.488 8.19 68 18q2.21.947 4.422 1.887C943.172 372.81 956.526 379.684 969 388c-5.393 12.633-20.654 23.74-30.25 33.25a6916 6916 0 0 0-9.016 8.953l-2.04 2.015c-3.836 3.816-7.463 7.747-10.998 11.844-4.412 5.043-9.159 9.785-13.857 14.56a503 503 0 0 0-3.808 3.93 542 542 0 0 1-5.566 5.702l-1.696 1.795C890.14 471.67 890.14 471.67 887 474c-4.969-.078-9.092-2.237-13.562-4.25-6.604-2.843-13.19-4.92-20.188-6.562l-2.502-.59c-2.576-.576-5.156-1.1-7.748-1.598l-2.953-.573c-8.158-1.427-16.16-1.706-24.413-1.633-2.132.018-4.264.02-6.396.02-8.448.023-16.823.397-25.238 1.186 6.221-6.429 12.888-12.371 19.938-17.875 28.28-22.963 48.182-50.406 52.53-87.078.23-2.684.423-5.356.532-8.047"/><path fill="#F9FAFC" d="M458 572v32l15-1-4-6c-.693-3.255-.64-5.005 1.176-7.828 4.449-5.472 9.027-8.674 16.12-9.41 8.029-.243 13.55 2.11 19.704 7.238-1.022 2.964-2.123 4.097-4.625 6.063-3.375.937-3.375.937-5.441.042a77 77 0 0 1-4.102-2.808c-3.785-2.68-7.343-2.463-11.832-2.297-1.3 1.092-1.3 1.092-1.312 3.75.483 5.026 3.009 7.066 6.625 10.352 5.006 3.27 11.3 2.58 17.062 2.648l3.676.09q4.474.105 8.949.16l-1.425 2.356a106 106 0 0 0-2.782 4.94c-2.35 2.234-4.234 2.117-7.389 2.056l-2.091-.102-2.127-.055A304 304 0 0 1 494 614l.977 2.195c1.763 4.832 1.932 9.932.37 14.867-1.868 3.721-4.42 6.414-8.156 8.278-6.052 1.823-12.117 1.626-17.816-1.028-3.752-3.653-4.47-6.58-4.687-11.687.09-4.483 1.002-9.315 4.312-12.625l-12-1q.18 6.375.372 12.75.065 2.163.125 4.326.089 3.132.187 6.264l.11 3.793c.23 4.316.682 8.578 1.206 12.867l1.724-.228q8.93-1.177 17.862-2.335 3.329-.434 6.654-.874 4.8-.632 9.6-1.25l2.974-.398A114 114 0 0 1 515 647c-.65 1.673-1.32 3.339-2 5l-.777 2.098C511 656 511 656 508.926 656.793c-7.961 1.202-15.888 1.795-23.926 2.207l.496 2.727c.592 3.847.571 7.388.504 11.273h10c0 5 0 5-1.793 7.422l-2.394 2.328-2.356 2.36c-2.637 2.029-4.134 2.825-7.457 2.89-1.738-.957-1.738-.957-3-3a72 72 0 0 1-1.187-7.687l-.249-2.069c-.542-4.828-.564-9.304-.564-14.244l-17 1c.36 2.625.722 5.25 1.094 7.953l1.042 7.635q.362 2.652.728 5.302.524 3.813 1.042 7.626l.332 2.39c.46 3.41.762 6.644.762 10.094l2.821-.708a5337 5337 0 0 1 30.03-7.439q2.497-.612 4.993-1.228 3.664-.902 7.332-1.797l2.253-.558c2.935-.713 5.539-1.27 8.571-1.27-.64 2.009-1.31 4.008-2 6l-.656 2.086c-2.093 2.98-4.466 3.027-7.969 3.789q-2.163.488-4.324.98l-2.416.537c-2.919.673-5.817 1.41-8.717 2.159l-3.183.819q-3.11.802-6.22 1.612c-5.853 1.486-11.497 2.501-17.515 3.018l3 10c9.846-2.395 19.649-4.943 29.438-7.562 1.65-.44 1.65-.44 3.335-.887 5.535-1.49 10.954-3.06 16.31-5.113 2.294-.524 3.68-.066 5.917.562-1.171 4.147-2.305 7.935-6.084 10.31-2.658.98-5.296 1.727-8.045 2.413l-2.988.835c-3.14.87-6.291 1.687-9.445 2.505q-3.188.873-6.374 1.755a959 959 0 0 1-11.656 3.131l-2.366.618C477 730 477 730 474 730q.685 2.563 1.375 5.125l.773 2.883c.863 3.031 1.847 6.005 2.852 8.992 12.005-4.834 23.812-10.015 35.563-15.437q2.412-1.11 4.826-2.217Q525.197 726.678 531 724c1.098 3.294 1.128 5.599.208 8.954-2.673 4.526-8.235 6.014-12.895 7.921l-3.264 1.43c-5.346 2.307-10.413 4.085-16.049 5.695l7 17c2.178-4.513 2.178-4.513 4.337-9.035 1.618-3.293 2.552-4.891 5.663-6.965 6.028-.502 9.608.357 15 3l3 1 6-14h6c-1.439 5.123-2.98 10.062-5.125 14.938-1.57 3.728-2.123 6.838-2.312 10.875-.242 3.956-.46 5.038-2.813 8.437-2.75 1.75-2.75 1.75-5.562 1.563L528 774c-1.125-6.625-1.125-6.625 0-10-1.617-3.054-1.617-3.054-3.805-3.687-2.151-.325-4.026-.524-6.195-.313-4.452 3.867-5.765 8.929-6.414 14.648l-.211 3.727-.227 3.773L511 785l-5 1c-4.2-8.204-8.291-16.435-12-24.875l-.916-2.07C491 754.25 491 754.25 491 752l-2.312 1.5C486 755 486 755 483 755l1.33 2.918a32357 32357 0 0 1 7.035 15.455q1.531 3.362 3.06 6.725l.948 2.078c2.676 5.887 5.256 11.806 7.627 17.824l10.888-6.877q6.64-4.197 13.288-8.38l2.516-1.586 4.723-2.97a386 386 0 0 0 13.733-9.072C550 770 550 770 552 770c.159 8.246.159 8.246-1 11-2.469 1.887-2.469 1.887-5.5 3.688-3.439 1.904-3.439 1.904-6.5 4.312l2.625 1.563C546.252 793.64 550.23 797.69 552 803c.824 6.726-.412 12.242-4 18-4.698 4.475-7.982 5.438-14.332 5.328-4.473-.55-7.475-2.17-10.668-5.328-4.427-6.183-5.604-11.508-5-19l-8 5c1.021 4.085 2.37 6.424 4.633 9.938l2.191 3.46q1.727 2.711 3.47 5.412a619 619 0 0 1 3.339 5.253l2.028 3.16C527 837 527 837 526.83 839.168c-1.3 2.867-2.946 5.318-4.831 7.832h-2c-1.278-1.797-1.278-1.797-2.723-4.32l-1.62-2.795-1.72-3.01a3396 3396 0 0 0-3.519-6.05l-1.752-3.007C503.5 818.393 503.5 818.393 497 810c-1.591 4.176-2.38 7.529-2 12l1.25 2.438c.75 2.562.75 2.562-.008 4.43-1.008 1.754-2.12 3.448-3.242 5.132-2.83-2.83-3.935-4.482-4.437-8.5.285-5.948 1.966-11.755 3.437-17.5a895 895 0 0 0-3.312 3.25l-1.864 1.828c-2.65 2.779-2.65 2.779-4.824 5.922.115 2.376.115 2.376.75 4.813.481 3.279.64 4.604-1.23 7.394-1.767 1.731-3.545 3.306-5.52 4.793-2-1-2-1-3.125-3.187-1.263-4.06-1.84-6.906.152-10.844 4.168-6.558 9.521-13.685 15.805-18.32 1.506-1.752 1.506-1.752.903-4.863-.718-3.697-1.753-6.596-3.325-10.005l-1.613-3.54-.858-1.848a786 786 0 0 1-2.646-5.785q-1.785-3.935-3.582-7.864l-.873-1.91L476 766c-6.171-13.508-11.414-26.582-15-41a421 421 0 0 0-1.812-6.125l-.708-2.32L458 715l-2.16.973c-4.613 1.668-9.004 1.696-13.84 1.027-4.838-2.727-7.315-6.29-9.3-11.367-3.997-15.048 3.274-29.668 10.3-42.633h5l-1.277 3.762-1.66 4.926-.842 2.474c-2.961 8.811-5.59 18.963-1.846 27.963 1.468 2.896 1.468 2.896 3.625 4.875 2.44.243 2.44.243 5.125.125L456 707l-.564-2.066c-2.756-10.893-3.856-21.91-5.061-33.059q-.486-4.424-.979-8.847-.305-2.732-.597-5.466l-.274-2.48-.235-2.176c-.268-2.122-.268-2.122-1.29-4.906a102 102 0 0 1-.133-5.344l-.006-3.407.014-3.749.006-3.893c.062-18.873.62-37.742 1.119-56.607 6.625-3 6.625-3 10-3"/><path fill="#FDCE08" d="m838 552 2.777 1.14C843 555 843 555 843.523 558.435q-.036 2.003-.148 4.004l-.102 3.996c-.207 2.701-.472 4.999-1.273 7.566l1.844.008c16.083.71 31.979 8.893 44.156 18.992l2.477 1.832c8.823 7.58 14.278 18.94 16.523 30.168H715c3.105-15.527 10.243-25.919 23.105-35.254 12.9-8.28 30.056-16.549 45.895-15.746l-.477-2.09c-.573-3.188-.8-6.235-.898-9.472l-.148-3.38C783 556 783 556 785.16 553.708c13.297-7.993 38.705-7.619 52.84-1.707"/><path fill="#2E3192" d="M376.395 1356.68c5.408 2.337 8.25 5.994 10.605 11.32.684 3.51.79 6.93.813 10.5l.076 2.781c.058 2.24.087 4.48.111 6.719l18 1v-21h-9c-1-1-1-1-1.098-3.504l.036-3.059.027-3.066L396 1356c3.682-1.16 7.154-1.126 10.997-1.127l2.135-.005c2.36-.004 4.72 0 7.08.003l5.075-.006q6.893-.004 13.785 0c4.803.003 9.607 0 14.41 0q12.099-.004 24.196.005 14.001.007 28.002-.002 12.01-.007 24.02-.003 7.18.003 14.357-.001 6.745-.004 13.489.005 2.48 0 4.96-.002 3.375-.002 6.75.006l3.823.001C572 1355 572 1355 574 1356v12h-11l.016 5.308q.023 8.663.036 17.327.007 5.254.023 10.51c.013 4.023.018 8.046.023 12.07l.015 3.829v3.518l.007 3.116C563 1426 563 1426 562 1427h-15l-1-36h-16c-4.042 4.042-4.493 4.564-4.498 9.893l.06 2.17-.021 2.181c.036 2.958.094 5.193 1.729 7.713 2.04 1.23 3.485 1.502 5.855 1.668C537 1415 537 1415 538 1416c.072 1.853.084 3.708.063 5.563l-.028 3.066L538 1427c-2.709.081-5.415.14-8.125.188l-2.305.076c-4.963.064-8.256-.54-12.57-3.264-6.226-6.399-6.364-13.412-6.375-21.875l-.074-2.895c-.03-7.154 1.136-12.808 6.23-18.07l1.719-1.098 1.719-1.152c3.545-1.811 7.049-2.066 10.984-2.226l2.969-.127 3.078-.12 3.125-.13q3.813-.159 7.625-.307c.043-2 .04-4 0-6-.99-1.21-.99-1.21-2.905-1.12l-2.523.006h-2.851l-3.1.016-3.157.005c-3.342.005-6.684.018-10.027.03q-3.39.008-6.779.014-8.329.017-16.658.049l-.044 1.94c-.075 2.917-.171 5.832-.269 8.747l-.068 3.053c-.338 9.317-.338 9.317-3.619 13.26-3.158 2.908-6.018 4.489-10 6l1.07 1.513 4.805 6.8 1.684 2.38 1.62 2.295 1.492 2.11c2.552 3.652 3.57 5.436 3.329 9.902-5.405 1.264-10.732 2.194-16 0-5.369-4.885-8.91-11.435-12.534-17.65-1.312-2.103-2.672-3.846-4.333-5.674-2.353-2.952-2.748-4.16-2.57-7.863l.066-2.543C463 1391 463 1391 465 1388a65 65 0 0 1 7.625-.687L480 1387v-18h-26l-1 58h-15c-1-1-1-1-1.12-3.322l.006-3.116v-3.518l.016-3.83.005-3.896q.006-5.137.024-10.273.014-5.238.02-10.477c.01-6.856.029-13.712.049-20.568h-14l.016 5.2q.023 8.496.036 16.992.007 5.153.023 10.304c.013 3.947.018 7.893.023 11.84l.015 3.747v3.458l.007 3.055C423 1425 423 1425 422 1427h-15c-1.279-2.557-1.113-4.367-1.098-7.227l.01-3.125.026-3.273.013-3.297q.02-4.039.049-8.078h-19v9c-1 1-1 1-4.125 1.133l-3.875-.008-3.875.008C372 1412 372 1412 371 1411c-.148-2.86-.235-5.697-.281-8.559l-.056-2.604q-.088-4.137-.163-8.274a3938 3938 0 0 0-.219-10.872l-.04-2.544c.019-4.208.019-4.208-1.241-8.147-2.118-.687-2.118-.687-4.562-1.125L360 1368v-12c4.655-2.327 11.552-.695 16.395.68"/><path fill="#FDFDFE" d="m808.453 344.902 3.11.005c3.229.005 6.458.018 9.687.03q3.315.009 6.629.014 8.06.017 16.121.049c-2.011 7.519-2.011 7.519-3.96 10.508-.384.587-.766 1.175-1.16 1.78l-1.255 1.837c-.44.647-.878 1.295-1.33 1.962C824.641 377.822 809.126 390.24 792 401l-1.739 1.1c-11.448 7.186-23.38 13.54-35.317 19.867q-3.195 1.7-6.385 3.408c-3.968 2.12-7.946 4.22-11.93 6.31a782 782 0 0 0-4.74 2.516 664 664 0 0 1-6.686 3.514l-2.026 1.1c-4.6 2.351-4.6 2.351-7.5 1.515-2.205-1.749-4.006-3.651-5.865-5.767l-2.39-2.72c-3.098-3.636-6.102-7.344-9.106-11.058-2.362-2.84-4.814-5.567-7.316-8.285-4.162-4.524-8.087-9.191-11.95-13.973-2.621-3.231-5.325-6.382-8.05-9.527 19.771-22.407 61.652-32.768 89.9-38.56a415 415 0 0 0 6.729-1.483c3.547-.792 7.09-1.465 10.683-2.02l2.989-.472c9.053-1.138 18.032-1.611 27.152-1.563"/><path fill="#2E3192" d="m1095.813 1354.866 2.474-.007q4.125-.007 8.252-.004l5.897-.01q8.028-.014 16.054-.012 6.69-.003 13.383-.008 15.78-.013 31.562-.01 16.302-.001 32.603-.026 13.977-.019 27.954-.018 8.356.002 16.713-.013 7.856-.014 15.712-.003 2.889.003 5.777-.007c2.622-.008 5.244-.003 7.866.005l2.327-.016c3.754.025 5.408.126 8.613 2.263.328 2.348.328 2.348.25 5.063-.015.898-.03 1.796-.047 2.722C1291 1367 1291 1367 1290 1368l-10 1-1 58h-16v-33l-20 1v10c-2.47 2.47-3.396 2.35-6.812 2.438-3.552-.114-5.115-.399-8.313-2.125-2.98-5.264-2.8-10.417-1.875-16.313 1.593-3.511 3.798-5.413 7.29-7.119 3.065-.996 5.666-1.2 8.886-1.295l3.506-.117 3.63-.094 3.69-.117q4.499-.141 8.998-.258v-11h-45l-1 58h-16v-37l-11 1 1 2c1.234 17.679 1.234 17.679-4 24-6.236 5.641-12.426 5.626-20.5 5.313l-3.36-.069a590 590 0 0 1-8.14-.244v-12c3.3-1.65 6.991-1.383 10.625-1.562l2.43-.131q2.972-.159 5.945-.307c.081-2.27.14-4.541.188-6.812l.105-3.833c-.029-3.252-.029-3.252-1.484-5.265-2.361-1.423-4.192-1.563-6.934-1.715-4.792-.292-4.792-.292-5.875-1.375-.072-2.02-.084-4.042-.062-6.062l.027-3.348.035-2.59c3.332-1.666 7.065-1.12 10.727-1.098l2.614.005c2.761.005 5.523.018 8.284.03q2.805.009 5.61.014 6.882.017 13.765.049l-1-7-57-1v14c-3 4-3 4-5.82 4.546l-3.38.063-3.661.098-3.826.043-3.862.09q-4.725.105-9.451.16v5l2.016.044c3.037.075 6.073.172 9.109.269l3.172.068c7.014.244 11.72.87 17.047 5.78 2.247 3.852 2.247 6.895 2.156 11.277.015.737.03 1.475.047 2.236-.037 5.185-1.005 8.318-4.547 12.326-5.322 3.885-10.936 3.382-17.25 3.25l-3.047-.016c-7.393-.08-7.393-.08-9.703-1.234l.063 3.938A59 59 0 0 1 1111 1434c-1 1-1 1-3.871 1.133l-3.566-.008-3.56.008C1097 1435 1097 1435 1095 1434q-.042-6.468-.062-12.937l-.026-3.733-.01-3.545-.016-3.285c.114-2.5.114-2.5 1.114-3.5 2.353-.073 4.708-.084 7.063-.062l3.91.027 3.027.035.875 2.938c.767 3.169.767 3.169 3.125 4.062 2.374.071 4.75.084 7.125.063l3.883-.028L1128 1414v-8l-1.709-.044a946 946 0 0 1-7.791-.268l-2.687-.069c-6.905-.28-13.103-1.045-18.313-5.994-2.285-5.522-2.234-10.736-1.5-16.625 2.308-5.148 4.85-6.93 10-9 3.288-.482 6.556-.6 9.875-.687l2.664-.104c2.153-.082 4.307-.147 6.461-.209v-4l-39-1v-12c3.109-1.554 6.401-1.14 9.813-1.134M679.563 1134.188c3.301 2.455 5.597 5.132 7.437 8.812.083 1.375.107 2.755.098 4.133l-.01 2.441-.025 2.551-.014 2.574q-.02 3.15-.049 6.301l1.775-.003q21.356-.033 42.713-.049 10.327-.007 20.655-.023 9.96-.016 19.918-.02 3.808-.003 7.615-.01a4905 4905 0 0 1 10.632-.009l3.209-.01 2.915.004 2.542-.003C801 1161 801 1161 803 1162v11l-8 1-1 54h-12v-24l-22 1c3.238 5.374 3.238 5.374 6.492 10.739 4.26 7.157 4.26 7.157 4.508 11.261-1 1-1 1-3.723 1.098l-3.34-.035-3.347-.028L758 1228l-1.177-2.095q-2.629-4.672-5.26-9.342l-1.854-3.3-1.768-3.134-1.634-2.904c-1.122-2.124-1.122-2.124-2.307-3.225a79 79 0 0 1-.125-4.937l-.008-2.715C744 1194 744 1194 745 1192c2.844-.396 5.665-.508 8.531-.656L756 1191c1.532-3.064 1.102-6.27 1.063-9.625L757 1174h-18c-.496 5.278-.496 5.278-.956 10.559-.571 5.395-1.99 8.941-5.044 13.441-5.33 4.13-11.578 3.28-18 3a920 920 0 0 1-.062-5.437l-.036-3.06C715 1190 715 1190 716 1189l3.438-.312c3.556-.26 3.556-.26 4.777-2.403.91-2.65.984-4.74.91-7.535L725 1174h-15c-.069 4.466-.129 8.93-.165 13.397a629 629 0 0 1-.061 4.554 614 614 0 0 0-.067 6.56l-.048 3.984c.36 3.71 1.091 5.572 3.341 8.505 2.237 1.119 3.614 1.18 6.098 1.281l2.427.114 5.086.21c6.288.294 6.288.294 7.389 1.395.072 1.853.084 3.708.063 5.563l-.028 3.066L734 1225c-3.19 1.595-6.624 1.185-10.125 1.188l-2.227.037c-6.359.016-12.751-.472-17.96-4.475-6.068-6.208-6.818-12.487-7.004-20.797l-.063-2.337q-.098-3.682-.183-7.366l-.131-5.004A5908 5908 0 0 1 696 1174h-8l-1 54h-11c-1.666-1.666-1.167-3.688-1.205-5.979l-.06-3.215-.051-3.497-.063-3.56q-.098-5.656-.183-11.312l-.131-7.646q-.162-9.396-.307-18.791h-9l-1 54h-12v-24l-22 1c3.238 5.374 3.238 5.374 6.492 10.739 4.26 7.157 4.26 7.157 4.508 11.261-1 1-1 1-3.723 1.098l-3.34-.035-3.347-.028L628 1228l-1.177-2.095q-2.629-4.672-5.26-9.342l-1.854-3.3-1.768-3.134-1.634-2.904c-1.122-2.124-1.122-2.124-2.307-3.225a79 79 0 0 1-.125-4.937l-.008-2.715C614 1194 614 1194 615 1192c2.844-.396 5.665-.508 8.531-.656L626 1191c1.532-3.064 1.102-6.27 1.063-9.625L627 1174l-18-1c-.098-8.496-.098-8.496 0-11 1-1 1-1 3.588-1.12l3.492.006h3.944l4.292.016 4.368.005q5.758.006 11.516.024 5.872.014 11.743.02 11.528.017 23.057.049l-1-15h-9l-.437 4.438c-.438 4.437-.438 4.437-1.563 5.562-1.853.072-3.708.084-5.562.063l-3.067-.028L652 1156c-.471-7.122-.568-13.188 4-19 6.604-5.62 15.546-5.485 23.563-2.812M640 1174a61 61 0 0 0-.316 4.035l-.127 2.451-.12 2.576-.13 2.588q-.159 3.175-.307 6.35h13q.04-4.47.063-8.937l.025-2.577.01-2.45.016-2.27c.08-1.793.08-1.793-1.114-2.766a81 81 0 0 0-5-.125l-2.75-.008c-2.22-.119-2.22-.119-3.25 1.133m130 0a61 61 0 0 0-.316 4.035l-.127 2.451-.12 2.576-.13 2.588q-.159 3.175-.307 6.35h13q.04-4.47.063-8.937l.025-2.577.01-2.45.016-2.27c.08-1.793.08-1.793-1.114-2.766a81 81 0 0 0-5-.125l-2.75-.008c-2.22-.119-2.22-.119-3.25 1.133"/><path fill="#F7F9FC" d="M1153 434c4.246 3.543 5.936 7.727 8.063 12.688l1.144 2.607q1.237 2.82 2.462 5.644a1662 1662 0 0 0 4.292 9.764q2.885 6.519 5.754 13.043l1.191 2.709c1.074 2.5 2.095 5.015 3.094 7.545l3.063-1.5c3.802-1.602 6.783-2.029 10.937-1.5 5.93 3.14 9.985 7.583 12.46 13.867 3.228 12.768-1.871 27.717-7.46 39.133-3 2-3 2-6 2l.836 3.57c7.311 33.28 6.734 66.569 6.164 100.43-6.625 3-6.625 3-10 3v-12h-16l-.078-4.2q-.084-2.744-.172-5.487l-.043-2.764c-.157-4.32-.302-6.9-2.629-10.631-2.118-1.955-3.161-2.86-6.031-3.043-4.517.246-7.346.786-10.485 4.188-2.824 3.77-3.755 7.335-4.562 11.937l2.75-.187c3.54.204 4.7.833 7.25 3.187-.284 3.695-.548 6.321-2.625 9.438-3.267 2.149-5.545 1.988-9.375 1.562l-2-2c-4.743.627-9.27 3.088-13 6-1.114 3.2-1.114 3.2-1 7a223 223 0 0 1-1.062 5.938l-.536 2.902L1129 661h-5l.578-3.324q.338-2.181.672-4.364l.39-2.185c.58-3.96.614-5.734-1.593-9.147L1122 640c.813-1.937.813-1.937 2-4l3-1 1 3c8.603-3.805 8.603-3.805 14.098-10.852q.342-3.054.55-6.12c.85-7.317 5.464-12.623 11.04-17.09 5.78-4.244 11.265-4.834 18.312-3.938 3.364 1.596 5.388 3.846 7.145 7.156 1.124 3.737 1.07 7.297.98 11.157l-.027 2.244c-.024 1.814-.06 3.629-.098 5.443h8v-41l-9 2c-1.595.283-3.194.547-4.798.778l-2.497.363-2.596.367-2.75.395q-2.853.409-5.708.811-4.361.62-8.721 1.25-2.786.398-5.57.794l-2.62.379c-3.945.552-7.745 1.025-11.74.863 1.152-3.899 2.1-7.1 5-10 3.355-.828 3.355-.828 7.188-1.25l3.855-.453L1151 581c.255-2.897.255-2.897-1-4.687-1.498-3.465-1.65-6.65-1-10.313 2.266-5.169 5.33-8.813 10-12 3.2-1.012 3.2-1.012 6.688-1.687l3.707-.72c4.524-.744 9.03-1.287 13.605-1.593.323-5.816-.473-10.285-2.344-15.8-.656-2.2-.656-2.2-.656-5.2l-3.621 1.313-4.816 1.687-2.374.867c-5.67 1.96-12.35 3.954-18.076 1.238C1149.437 533 1149.437 533 1147 531l-.837 2.196c-1.11 2.674-2.361 5.138-3.765 7.667l-1.484 2.686-1.539 2.764-1.562 2.822A3507 3507 0 0 1 1134 556c-3 0-3 0-4.687-1.5L1128 553c2.31-6.117 5.572-11.676 8.75-17.375l1.844-3.367c3.328-5.974 6.55-11.41 11.406-16.258 3.75-1.062 3.75-1.062 7-1 2 2 2 2 2.188 5.5C1159 524 1159 524 1158 526l3.395-1.094 4.418-1.406 2.236-.723c3.084-.976 5.696-1.777 8.951-1.777l-1.375-3.062c-2.257-5.296-3.753-10.15-3.625-15.938a23388 23388 0 0 0-17.932 5.817l-6.093 1.975q-4.395 1.424-8.787 2.853l-2.726.88c-4.011 1.306-7.98 2.655-11.911 4.185C1121 519 1121 519 1118 519c.928-8.046.928-8.046 3-11 2.62-1.185 2.62-1.185 5.941-2.148l3.687-1.1 3.935-1.127c2.642-.781 5.282-1.573 7.921-2.363l1.97-.585a295 295 0 0 0 15.859-5.24l2.113-.76q2.288-.833 4.574-1.677-.175-2.063-.375-4.125l-.21-2.32c-.485-2.99-1.434-5.695-2.415-8.555l-2.313 1.126c-13.09 6.368-26.183 12.725-39.437 18.749l-2.81 1.279C1113.135 502 1113.135 502 1112 502c-.45-3.661-.381-6.553 1-10 4.114-3.163 9.686-7 15-7l-1.477-2.133c-2.767-5.208-2.25-11.3-1.09-16.992 2.267-6.307 7.188-9.662 12.915-12.582A312 312 0 0 1 1148 449l-.43-1.758c-1.186-6.304-1.186-6.304.7-9.176 1.668-1.628 1.668-1.628 4.73-4.066"/><path fill="#2E3192" d="m1181.625 1539 2.81.032c47.857.545 95.711 1.19 143.565 1.968l1 2c-153.047 2.325-153.047 2.325-216.955 2.914q-10.92.103-21.839.223c-83.543.896-167.088.98-532.51-.062q-8.379-.094-16.757-.185c-73.315-.8-146.63-1.66-219.939-2.89l1-2c175.789-2.538 175.789-2.538 859.625-2"/><path fill="#F6F9FC" d="M883.18 240.656c6.027 2.72 10.8 7.147 14.32 12.719 1.029 5.402.521 10.557-2.562 15.188L893 271c3.845 3.563 6.635 4.622 11.813 5.25 1.16.15 2.322.3 3.519.453L911 277l.402-2.887.535-3.8.528-3.762c.431-2.864.967-5.711 1.535-8.551l-12-2-2-11c7.425.74 14.602 2.36 21.875 4l3.742.828c9.118 2.04 9.118 2.04 11.383 3.172v2l1.693.465c7.647 2.19 14.983 5.036 22.37 7.972l3.681 1.448c6.489 2.564 12.906 5.224 19.256 8.115v2l2.656.823c3.159 1.112 5.908 2.414 8.844 4.013l3.158 1.71 3.342 1.829 3.449 1.874q3.531 1.918 7.058 3.845 5.025 2.74 10.06 5.465l8.841 4.796 2.596 1.415 2.276 1.237C1038 303 1038 303 1039 304a84 84 0 0 1-.437 5.063l-.31 2.785L1038 314c-4.755-.576-7.97-2.55-12-5l-.664 2.379c-1.772 4.802-4.215 9.098-6.711 13.558a1092 1092 0 0 0-13.375 24.938l-1.591 3.062A5337 5337 0 0 0 1000 360c-4.904-7.356-4.904-7.356-5-11 1.48-4.165 3.79-7.925 6.047-11.707 2.02-3.141 2.02-3.141 2.953-6.293l-2.562-.625c-6.086-2.434-10.49-6.48-13.438-12.375l-7 1 .535 1.785c.809 2.715 1.606 5.434 2.403 8.152l.841 2.807c1.684 5.783 2.734 11.25 3.221 17.256h-6c-2.148-4.793-3.272-9.79-4.5-14.875q-.639-2.622-1.281-5.242l-.619-2.538c-.52-2.033-1.121-4.045-1.737-6.052-.912-3.479-1.163-6.515-1.176-10.106l-.05-3.394L973 304c3-2 3-2 6.063-1.937 2.937.937 2.937.937 4.312 3.5L984 308c3.307-2.737 4.868-6.4 6.688-10.187l.97-1.983A964 964 0 0 0 994 291l-2.758-.867c-3.788-1.324-6.81-3.074-10.242-5.133v-3l-9-1-.96 2.586a2829 2829 0 0 1-10.165 26.789l-1.271 3.31A1287 1287 0 0 1 952 333c-2.563-2.498-4.474-4.719-6-8 .452-5.723 2.632-11.016 4.563-16.375l.998-2.809q1.213-3.41 2.439-6.816l-2.117-.621-2.758-.817-2.742-.808C944 296 944 296 942 295l-.875 2.875C940 301 940 301 938 303c-1.984-.05-1.984-.05-4-1-2.778-5.032-4.887-11.237-4-17l2-2c5.829.294 10.505 1.74 15.813 4.063 4.905 2.213 4.905 2.213 10.187 2.937l5-13c-7.118-3.361-14.252-6.302-21.691-8.856-3.643-1.301-5.1-1.832-7.309-5.144-2.647-.8-2.647-.8-5.625-1.187-1.003-.16-2.006-.318-3.04-.481-.77-.11-1.54-.22-2.335-.332l-.357 2.787c-.752 5.249-1.858 10.425-2.928 15.615l-.668 3.266q-1.053 5.136-2.11 10.27l-1.431 6.986Q913.756 308.462 912 317c-2 0-2 0-3.563-1.387-2.47-2.929-4.363-5.178-4.565-9.1.399-2.676.983-5.214 1.69-7.825l.635-2.706c.807-3.383 1.703-6.681 2.803-9.982l-1.828.07-2.422.055-2.39.07c-2.567-.212-4.152-.908-6.36-2.195l-.187 2.688c-1.257 5.122-4.244 7.254-8.5 10.125-5.698 2.042-10.973 2.288-16.5-.313-7.105-6.315-12.693-13.378-15.813-22.5.447-4.447.447-4.447 2-6a100 100 0 0 1 5 0l.48 1.977c1.904 7.13 4.008 11.321 9.957 15.898 3.856 1.692 6.94 1.74 10.875.25 1.847-1.03 1.847-1.03 2.688-3.125.07-1.54.085-3.083.063-4.625l-.028-2.477L886 274a535 535 0 0 0-4.25-.062l-2.39-.036c-2.267.094-4.189.466-6.36 1.098a265 265 0 0 1-2.562-3.812l-1.442-2.145C868 267 868 267 869 264c3.486-1.743 7.726-1.329 11.59-1.43 2.245-.074 2.245-.074 5.41-.57 2.43-3.644 2.162-5.712 2-10-3.065-.894-5.812-1.135-9-1.125l-2.562-.008c-2.73.072-2.73.072-6.438 1.133l-4-9c5.075-4.06 11.11-4.17 17.18-2.344"/><path fill="#2E3192" d="m918.188 1134.875 2.667-.008C923 1135 923 1135 924 1136c.072 1.853.084 3.708.063 5.563l-.028 3.066L924 1147l-2.371.367-3.067.508-3.058.492L913 1149c-1.203 2.405-1.1 3.95-1.062 6.625l.027 2.477L912 1160l2.992.184 3.883.254c1.276.08 2.552.162 3.867.246C926 1161 926 1161 928 1162v11l-9 1-.148 2.992-.227 3.883c-.07 1.276-.14 2.552-.21 3.867C918 1188 918 1188 916 1190c-2.063.319-2.063.319-4.57.414l-2.715.117-2.84.094-2.863.117q-3.505.142-7.012.258l1 4 3.29.078q2.167.084 4.335.172l2.16.043c5.106.234 8.196 1.303 12.215 4.707 2.618 3.455 2.3 7.155 2.313 11.375l.05 3.898c-.47 4.821-1.808 7.96-5.004 11.59-3.643 1.756-7.125 1.453-11.109 1.324l-2.402-.04A513 513 0 0 1 897 1228l-2 7h-11v-25c2.229-1.114 3.53-1.165 6-1.187l2.125-.043C894 1209 894 1209 896 1211c.707 1.65 1.38 3.316 2 5l10 1v-8l-3.543-.297-4.644-.453-2.33-.187c-4.961-.511-7.846-1.384-11.483-5.063-2.788-4.514-2.535-9.864-2-15 1.529-4.204 3.1-6.754 7-9 3.287-1.06 6.311-1.103 9.75-1.062l2.984.027L906 1178l-1-4h-29l-.184 11.559q-.092 5.514-.188 11.03-.066 3.846-.125 7.692-.088 5.514-.187 11.028l-.05 3.497-.06 3.215-.048 2.847C875 1227 875 1227 874 1228c-1.831.099-3.666.13-5.5.125l-3.031.008C863 1228 863 1228 862 1227a87 87 0 0 1-.205-4.979l-.06-3.215-.051-3.497-.063-3.56q-.098-5.656-.183-11.312l-.131-7.646q-.162-9.396-.307-18.791h-8l-1 54h-12v-20h-8l-.312 3.688c-.485 3.756-1.275 6.296-3.688 9.312-5.57 3.999-10.484 4.16-17.187 4.125l-2.233.012c-5.453-.01-5.453-.01-6.58-1.137a110 110 0 0 1-.062-5.562l.027-3.067L802 1213l2.957-.148 3.856-.227 3.832-.21c3.483-.176 3.483-.176 6.355-2.415.364-2.207.364-2.207.188-4.625l-.083-2.477L819 1201c-4.033-2.234-7.45-2.545-12-3a920 920 0 0 1-.062-5.437l-.036-3.06C807 1187 807 1187 808 1186c2.579-.322 5.16-.513 7.75-.719 2.217-.043 2.217-.043 3.25-1.281a59 59 0 0 0 .063-4.062L819 1176c-4.606-2.229-8.961-2.549-14-3v-11c5.163-2.581 12.552-1.396 17.938.125 4.236 1.591 6.021 3.793 8.062 7.875 1.154 3.463 1.204 6.288 1.25 9.938l.078 3.714c-.344 3.51-.936 4.836-3.328 7.348l2 4h8l.044-2.906c.058-3.552.135-7.104.218-10.656q.051-2.307.084-4.615c.034-2.21.086-4.418.142-6.628l.02-2.09c.06-1.94.06-1.94.492-5.105 3.387-2.258 4.517-2.245 8.481-2.227h3.397l3.665.032 3.754.008q4.935.016 9.868.05c3.359.02 6.717.03 10.075.04q9.88.033 19.76.097l-.057-2.917-.045-3.825-.057-3.793c.22-4.814 1.104-6.767 4.159-10.465 5.065-4.01 8.844-5.144 15.188-5.125M601.08 1354.866l3.259-.013 3.59.002 3.77-.01q5.126-.012 10.252-.012 4.275-.003 8.551-.008 10.086-.013 20.172-.01 10.411-.001 20.824-.026 8.933-.019 17.865-.018 5.338.002 10.676-.013c3.967-.011 7.935-.007 11.902 0 1.183-.007 2.366-.012 3.585-.018l3.267.013 2.844-.002C724 1355 724 1355 727 1357c.328 2.348.328 2.348.25 5.063-.015.898-.03 1.796-.047 2.722C727 1367 727 1367 726 1368l-10 1-1 58h-15c-1-1-1-1-1.12-3.322l.006-3.116v-3.518l.016-3.83.005-3.896q.006-5.137.024-10.273.014-5.238.02-10.477c.01-6.856.03-13.712.049-20.568l-45 1v7l1.52-.977c6.71-2.768 17.067-2.083 23.73.665 4.485 2.434 6.948 5.28 8.828 10.046 2.33 8.256 2.053 17.692-2.078 25.266-4.195 4.689-8.719 6.867-14.953 7.23a300 300 0 0 1-4.297-.042l-2.219-.002c-5.39-.045-5.39-.045-6.531-1.186a92 92 0 0 1-.063-5.062l.028-2.786L658 1407l3.125-.875c4.982-1.426 4.982-1.426 9.875-3.125 1.222-2.444 1.236-4.21 1.312-6.937l.114-2.653c-.219-2.514-.219-2.514-2.098-4.203-2.813-1.458-4.732-1.608-7.89-1.582l-2.88-.023c-2.51.217-2.51.217-4.188 1.428-2.126 3.057-1.83 6.287-1.847 9.884l-.047 2.334a841 841 0 0 0-.101 7.377q-.054 3.699-.123 7.398-.04 2.303-.063 4.604c-.078 5.262-.078 5.262-1.189 6.373-2.332.1-4.666.13-7 .125l-3.875.008C638 1427 638 1427 637 1426a104 104 0 0 1-.563-5.062l-.253-2.786L636 1416l-3 2c-2.94.25-5.746.37-8.688.375l-2.357.074c-5.794.03-10.104-1.242-14.955-4.449-4.974-4.974-6.287-10.473-6.313-17.375.129-7.026 1.075-11.828 5.563-17.437 7.685-6.114 15.26-5.803 24.75-5.188 1 1 1 1 1.098 3.504l-.036 3.059-.027 3.066L632 1386c-.843.182-1.686.364-2.555.55l-3.32.763-3.305.738c-3.114.728-3.114.728-4.82 3.949-.313 3.945-.477 6.759.937 10.438 3.337 2.527 6.955 2.648 11.063 2.562 3.328-.952 3.328-.952 6-3 .16-2.519.26-5.014.316-7.535.02-.668.038-1.335.057-2.022.068-2.502.128-5.004.19-7.505L637 1368h-43v-12c2.522-1.261 4.256-1.129 7.08-1.134"/><path fill="#FAFAFC" d="M1183 681c3.624 1.647 6.129 3.454 8 7 .397 3.642.307 6.195-1 9.625-2.902 3.446-5.748 5.787-10 7.375-7.524.57-14.87-1.87-22-4l-3 17 4.375 1.313c.902.27 1.805.54 2.734.82L1165 721l8.164 2.45 1.836.55.148-2.012c.88-10.385.88-10.385 2.852-12.988 3.268-1.333 6.574-2.182 10-3-.156 11.077-2.199 20.104-6.125 30.438q-.764 2.072-1.526 4.145c-3.137 8.481-6.45 16.85-10.272 25.047-1.38 3.038-2.69 6.104-4.007 9.17-5.587 12.95-11.341 25.229-19.45 36.828-3.143 4.603-6.1 9.327-9.09 14.03-1.736 2.729-3.479 5.453-5.221 8.178l-1.788 2.798A388 388 0 0 1 1127 842l-11-1c2-5 2-5 3.625-7.687 1.545-2.151 1.545-2.151 1.375-4.313-1.757-1.388-1.757-1.388-4.074-2.766l-2.685-1.678-2.928-1.806q-3.017-1.89-6.032-3.785l-3.14-1.973c-4.986-3.162-9.913-6.41-14.829-9.68l-2.696-1.78-2.503-1.669-2.194-1.46c-1.831-1.339-3.367-2.753-4.919-4.403 3.216-1.961 5.348-3.01 9.152-2.953 5.093 1.261 8.61 3.754 12.848 6.765q2.31 1.607 4.625 3.208l2.223 1.541c2.966 1.984 6.025 3.721 9.152 5.439 6.175-8.224 6.175-8.224 7-18l-3-1.875-1.687-1.055c-6.678-3.09-13.093-3.34-20.313-3.195l-2.637.027c-2.12.024-4.242.06-6.363.098 1.172-2.73 1.788-4.116 4-6 3.878-.871 7.67-.699 11.625-.562l3.16.005c8.045.136 15.941.818 22.277 6.12 3.164 3.98 3.333 6.723 3.29 11.71-.591 4.583-2.871 7.918-5.352 11.727q-1.17 2.024-2.312 4.063L1121 818c3.254 2.259 3.254 2.259 7 3 1.195-1.515 1.195-1.515 2.32-3.516.45-.75.898-1.501 1.361-2.275l1.444-2.459c3.274-5.493 6.588-10.883 10.25-16.125 3.774-5.545 6.31-11.347 8.625-17.625l-2.555-.797c-3.641-1.272-7.103-2.775-10.57-4.453l-1.84-.832c-4.47-2.172-6.749-4.527-9.035-8.918v-4l-29 10v-7c7.555-3.459 15.3-6.222 23.188-8.812l2.805-.952c5.889-1.894 10.815-2.744 17.007-2.236 2 2 2 2 2.313 4.938-.313 3.062-.313 3.062-1.688 4.937C1141 762 1141 762 1139 762c1.565 3.13 4.248 3.696 7.375 5.125l3.523 1.633c3.01 1.428 3.01 1.428 6.102 1.242 1.34-2.789 2.67-5.581 4-8.375l1.156-2.406 1.094-2.305 1.016-2.126c.86-1.774.86-1.774.734-3.788l-52-20v-2c5.4-3.636 7.413-4.275 14-3 3 .974 5.904 2.147 8.82 3.344l2.49.997c2.608 1.046 5.212 2.102 7.815 3.159q3.915 1.585 7.836 3.159 2.431.976 4.858 1.966c3.71 1.494 7.198 2.785 11.181 3.375l1-9-10.011-3.557-8.497-3.02c-6.313-2.245-12.627-4.481-18.969-6.642l-2.807-.96a718 718 0 0 0-5.088-1.714c-5.517-1.885-5.517-1.885-6.628-4.107 2.497-2.197 4.875-3.825 8-5 3.935.292 7.344 1.568 11 3l2.926 1.11c2.373.926 4.726 1.903 7.074 2.89l2-16-6-1c.272-3.622.488-5.478 3.074-8.117l2.613-1.758 2.575-1.805c3.141-1.514 5.293-1.572 8.738-1.32.981 3.053.981 4.947 0 8 2.298.116 2.298.116 5-1 1.655-1.932 3.07-3.976 4.535-6.055 3.68-4.886 7.559-5.578 13.465-4.945"/><path fill="#2E3192" d="M948.938 1162.125c4.236 1.591 6.021 3.793 8.062 7.875 1.154 3.463 1.204 6.288 1.25 9.938l.078 3.714c-.344 3.51-.936 4.836-3.328 7.348l2 4h8l.044-2.906c.058-3.552.135-7.104.218-10.656q.051-2.307.084-4.615c.034-2.21.086-4.418.142-6.628l.02-2.09c.06-1.94.06-1.94.492-5.105 3.65-2.433 5.386-2.253 9.735-2.259l2.06-.01c2.247-.01 4.493-.003 6.74.003l4.681-.005q4.904-.005 9.808.01c4.195.012 8.39.005 12.587-.007q4.83-.009 9.663 0 2.322.003 4.643-.005c2.16-.005 4.318.003 6.478.014l3.727.005C1039 1161 1039 1161 1041 1163c.195 2.164.195 2.164.125 4.625l-.055 2.477-.07 1.898-7 2-.113 3.91q-.099 2.577-.2 5.152l-.068 2.569c-.26 6.144-1.124 11.223-5.056 16.181-1.757 1.336-3.583 2.224-5.563 3.188l.902 1.481a1514 1514 0 0 1 4.035 6.707c.47.768.938 1.537 1.42 2.33 4.395 7.366 4.395 7.366 4.643 11.482-1 1-1 1-3.723 1.098l-3.34-.035-3.347-.028-2.59-.035-1.177-2.095q-2.629-4.672-5.26-9.342l-1.854-3.3-1.768-3.134-1.634-2.904c-1.122-2.124-1.122-2.124-2.307-3.225a79 79 0 0 1-.125-4.937l-.008-2.715C1007 1194 1007 1194 1008 1192c2.844-.396 5.665-.508 8.531-.656L1019 1191c1.532-3.064 1.102-6.27 1.063-9.625L1020 1174h-18l-.076 4.85q-.142 8.87-.296 17.74-.066 3.845-.125 7.69-.088 5.515-.187 11.029l-.05 3.497-.06 3.215-.048 2.847C1001 1227 1001 1227 1000 1228c-1.831.099-3.666.13-5.5.125l-3.031.008C989 1228 989 1228 988 1227a87 87 0 0 1-.205-4.979l-.06-3.215-.051-3.497-.063-3.56q-.098-5.656-.183-11.312l-.131-7.646q-.162-9.396-.307-18.791h-8l-1 54h-12v-20h-8l-.312 3.688c-.485 3.756-1.275 6.296-3.688 9.312-5.57 3.999-10.484 4.16-17.187 4.125l-2.233.012c-5.453-.01-5.453-.01-6.58-1.137a110 110 0 0 1-.062-5.562l.027-3.067L928 1213l2.957-.148 3.856-.227 3.832-.21c3.483-.176 3.483-.176 6.355-2.415.364-2.207.364-2.207.188-4.625l-.083-2.477L945 1201c-4.033-2.234-7.45-2.545-12-3a920 920 0 0 1-.062-5.437l-.036-3.06C933 1187 933 1187 934 1186c2.579-.322 5.16-.513 7.75-.719 2.217-.043 2.217-.043 3.25-1.281a59 59 0 0 0 .063-4.062L945 1176c-4.606-2.229-8.961-2.549-14-3v-11c5.163-2.581 12.552-1.396 17.938.125"/><path fill="#F7F9FC" d="M1049 315c3.714 1.459 6.372 3.25 8.938 6.313 1.584 4.008 1.748 7.652.363 11.761-1.763 2.61-3.49 3.122-6.426 4.176l-2.758 1.016L1047 339l1.566.996c2.135 1.541 3.808 2.927 5.434 5.004.401 3.172-.247 5.919-1 9l-.562 3.563L1052 360c-2.708-2.636-5.096-5.467-7.5-8.379-1.602-1.858-1.602-1.858-4.5-3.621-3.142.315-3.142.315-6 1-.854 3.306-.854 3.306-1 7 2.17 2.946 3.522 3.84 7 5 1.768.12 3.54.175 5.313.188l2.8.042c7.342-.586 10.647-3.522 15.262-8.855l1.652-1.852A529 529 0 0 0 1069 346q-1.18-1.724-2.375-3.437c-.44-.639-.882-1.277-1.336-1.934-1.21-1.766-1.21-1.766-3.289-2.629l1-10c4.729 0 5.67.907 9.25 3.813l2.703 2.144L1077 336v3l1.736.752c2.611 1.44 4.383 3.108 6.494 5.213l2.42 2.407 2.537 2.565 2.608 2.627c5.809 5.899 11.142 11.887 16.205 18.436 1.554 1.922 3.12 3.834 4.685 5.746a1755 1755 0 0 1 6.668 8.215q1.641 2.031 3.287 4.058a1177 1177 0 0 1 4.61 5.731l1.412 1.734c4.194 5.28 4.194 5.28 4.338 8.516-1.037 2.563-2.51 4.65-4 7-4.274-1.583-6.265-4.506-9-8-5.048 3.21-9.598 6.857-14.187 10.688l-4.547 3.769-2.217 1.842A1693 1693 0 0 1 1087 431l-2.855 2.324-2.77 2.238-2.477 2.004C1077 439 1077 439 1076 439c-.623-4.153-.823-7.865 0-12 2.832-3.447 6.261-5.617 10-8q2.327-1.73 4.625-3.5 1.685-1.254 3.375-2.5c-.586-3.098-1.476-4.896-3.562-7.25L1088 403c-2.867.573-3.861.861-6 3-3.536-.536-3.536-.536-5-2 .151-6.186.442-13.442 5-18 3.122.164 4.631.676 6.992 2.75l1.883 2.25 2.055 2.434A472 472 0 0 1 1102 405c4.275-2.748 8.141-5.693 12-9-7.334-9.911-14.847-19.745-23-29-3.99 1.598-6.635 4.396-9.578 7.418l-1.607 1.623a1609 1609 0 0 0-5.065 5.147q-3.315 3.37-6.64 6.73c-.533.537-1.064 1.075-1.612 1.629-3.525 3.538-7.144 6.913-10.964 10.134-1.729 1.447-1.729 1.447-3.909 3.757C1050 405 1050 405 1048 405c-.987-3.94-.996-7.051 0-11 3.553-5.516 8.798-9.871 13.563-14.312a1358 1358 0 0 0 3.869-3.745c5.25-5.068 10.552-10.007 16.178-14.658 1.522-1.256 1.522-1.256 2.39-3.285h-2a141 141 0 0 1-5-5c-6.46 5.138-11.874 11.15-17.402 17.245-2.597 2.852-5.225 5.676-7.848 8.505a564 564 0 0 0-12.324 13.738L1038 394h-1c-.966-4.105-1.473-7.794-1-12 2.505-3.909 5.527-6.94 9-10l-2.012-.516c-6.798-1.865-11.52-3.694-15.3-9.921-2.552-5.586-2.746-11.571-1.688-17.563 2.142-3.48 4.975-4.71 8.875-5.812L1037 338l-.48-1.664c-1.304-5.86-1.444-11.52 1.293-16.899 3.607-4.02 5.863-5.051 11.187-4.437"/><path fill="#292983" d="m875 1258 18.438-.187 5.763-.083q2.304-.014 4.608-.023l2.346-.046c6.9-.004 12.935 1.481 18.783 5.214 4.043 4.166 4.356 8.413 4.375 14.063l.05 3.59c-.676 6.46-3.684 10.172-8.363 14.472l2.875 2.188c2.987 2.272 4.104 4.185 5.125 7.812.351 3.517.463 7.03.563 10.563q.09 2.814.19 5.628l.073 2.507c.167 2.21.567 4.174 1.174 6.302-3.125.087-6.25.14-9.375.188l-2.695.076-2.578.029-2.38.048L912 1330c-2.133-3.2-2.247-4.067-2.273-7.746l-.063-2.787a720 720 0 0 1-.055-5.797l-.07-2.791-.025-2.545c-.435-2.973-.435-2.973-4.514-6.334l-12-1v29h-18zm18 11v21c8.707.124 8.707.124 16-3 1.343-2.686 1.243-4.877 1.313-7.875l.113-3.18c-.217-3.005-.217-3.005-2.024-5.312-3.207-2.18-5.311-2.037-9.152-1.883z"/><path fill="#0963AC" d="M818 399c0 8.259-11.863 17.698-17.465 23.472-14.587 14.522-32.194 25.732-49.273 37.04-18.213 11.96-18.213 11.96-35.262 25.488l-2.602 2.27A421 421 0 0 0 706 494l-2.156 1.992c-14.018 13.425-24.112 33.012-24.955 52.575-.333 16.514 1.042 31.94 4.427 48.093A218 218 0 0 1 685 606c-15.29-18.472-19.814-47.908-18-71 2.527-20.86 13.87-38.002 28-53l1.79-2.02c14.513-15.697 35.875-24.555 54.76-33.671 16.474-7.975 31.184-17.874 45.45-29.309l2.89-2.305C806.119 409.67 812.105 404.41 818 399"/><path fill="#FAFBFC" d="M947.25 932.063c7.985 5.73 13.345 13.98 15.43 23.609 1.152 8.376 1.58 17.249-3.68 24.328-5.52 6.267-12.554 8.367-20.312 10.875l-3.612 1.219C926.372 995 926.372 995 924 995c-4.017-10.58-7.921-21.195-11.635-31.886q-.813-2.334-1.643-4.662a865 865 0 0 1-2.406-6.87l-.754-2.09c-1.293-3.797-2.26-6.734-.562-10.492 2.342-1.394 2.342-1.394 5.434-2.457l3.408-1.182 3.596-1.173 3.49-1.233c8.172-2.758 16.359-5.314 24.322-.893"/><path fill="#F8FAFC" d="M512 403c1.46.114 2.917.242 4.375.375l2.46.21C521 404 521 404 523 406l-6 9c3.158 3.421 6.676 5.926 10.563 8.438q2.004 1.315 4.007 2.632l2.158 1.42c4.899 3.256 9.732 6.612 14.573 9.955 4.341 2.986 8.714 5.83 13.268 8.483L563 447v2a211 211 0 0 1-3.75 1.563l-2.11.878c-2.623.685-3.577.453-6.14-.441a137 137 0 0 1-6.164-4.008l-1.794-1.223q-2.838-1.941-5.667-3.894l-3.738-2.555c-6.266-4.284-12.499-8.607-18.662-13.038-2.045-1.445-2.045-1.445-4.975-2.282l-.812 2.063c-1.349 3.334-2.767 6.633-4.188 9.937l1.87 1.003c11.37 6.107 22.715 12.255 33.942 18.622l2.673 1.503 2.472 1.411 2.156 1.225c1.894 1.24 3.352 2.579 4.887 4.236-3.686 2.494-6.545 3.694-11 4-2.992-1.215-2.992-1.215-5.875-2.937l-2.93-1.715L531 462l-.078 1.688c-.565 7.598-2.509 13.4-8.235 18.625-6.395 4.983-11.768 6.053-19.687 5.687l1-14h-2l-1 3c-4.98 3.713-9.932 4.88-16 4-3.802-2.128-6.384-4.952-8-9-.565-6.26 1.542-10.548 5.332-15.371 3.058-2.986 5.81-3.92 10.043-3.942 5.837.163 9.21 1.865 13.313 6.063 4.657 6.546 5.854 12.407 6.312 20.25 4.916-1.583 4.916-1.583 8.438-5.062 1.206-6.303 1.619-13.171-1.438-18.938-3.176-2.347-6.608-4.095-10.125-5.875l-2.863-1.508A544 544 0 0 0 499 444l-2 5h-11c1.125-5.624 1.125-5.624 2.89-8.672l1.143-1.998 1.217-2.08 2.492-4.328 1.202-2.076c1.195-2.09 2.315-4.213 3.431-6.346 3.947-7.177 8.93-13.8 13.625-20.5"/><path fill="#292983" d="m746.375 1256.688 2.422-.05c7.119-.005 13.897 1.31 19.64 5.737 3.432 3.515 4.47 6.047 4.758 10.957L773 1283h-18l-.39-9.18c-.306-2.904-.306-2.904-2.438-4.191-4.472-1.295-8.75-.841-13.172.371q-.113 9.53-.165 19.061-.022 3.244-.061 6.487c-.037 3.105-.054 6.21-.067 9.315-.015.97-.03 1.938-.047 2.936v2.73l-.02 2.402c.452 2.6 1.294 3.477 3.36 5.069 2.177.436 2.177.436 4.5.313l2.344-.012c2.45-.183 2.45-.183 5.156-2.301.587-3.346.587-3.346.688-7.125L755 1302h18l.25 7.625.11 2.366c.081 5.13-1.029 7.921-4.36 12.009-7.03 6.66-15.734 6.903-25 7-9.123-.547-16.63-2.208-22.937-9.125-1.785-3.149-2.196-5.765-2.24-9.311l-.039-2.712-.022-2.926-.025-3.024q-.02-3.171-.032-6.342c-.017-3.218-.061-6.434-.105-9.652q-.015-3.084-.026-6.17l-.053-2.895c.02-6.024.834-10.901 4.479-15.843 6.784-5.424 14.96-6.346 23.375-6.312M807.375 1256.563l2.506.022c7.202.194 14.251 1 19.853 5.946 4.827 5.532 4.266 7.405 4.266 15.469h-18l-1-7c-2.997-1.998-3.633-2.276-7-2.25l-2.062-.016c-2.262.167-2.262.167-4.938 2.266-.668 3.372-.668 3.372 0 7 4.203 5.558 10.858 9.129 16.781 12.656 6.573 3.973 12.695 8.295 16.219 15.344.488 5.79.776 11.157-1.5 16.563-7.12 6.942-16.41 8.437-26.102 8.437-8.694-.447-17.11-1.352-23.398-8-3.09-5.596-3-9.3-3-16h18l1.367 7.715L800 1317c2.444 1.222 4.21 1.236 6.938 1.313l2.652.113c2.543-.213 2.543-.213 4.238-2.238 1.456-2.262 1.456-2.262.985-5.5-2.109-5.947-8.45-8.633-13.54-11.743C783.728 1288.18 783.728 1288.18 781 1280c-.535-5.975-.513-10.912 3-16 6.193-6.375 14.862-7.547 23.375-7.437"/><path fill="#FBFBFD" d="M740 940c6.893.83 13.679 1.95 20.5 3.25l3.3.582c7.71 1.482 14.487 3.352 19.2 9.98 1.737 5.538 1.549 9.542-.25 14.938-2.303 4.277-4.099 6.7-8.75 8.25l1.438 1.438c2.228 3.654 2.532 7.32 2.562 11.562l-.48 1.89c-.695 2.82-.614 5.46-.582 8.36L777 1006l-13-2 .07-4.523q.029-2.926.055-5.852l.05-2.984.02-2.852.032-2.634c-.021-2.368-.021-2.368-2.227-4.155-1.826-.64-1.826-.64-3.914-1.07l-2.305-.528-2.406-.527-2.43-.55q-2.97-.671-5.945-1.325l-.434 3.563A377 377 0 0 1 742.937 992l-.535 3.438L742 998c-4.52 1.456-7.516.27-12-1 .586-7.19 1.677-14.182 3.066-21.258l.601-3.118q.944-4.875 1.895-9.749l1.288-6.656A9903 9903 0 0 1 740 940M894 942c3.037 13.389 5.786 26.82 8.313 40.313l.408 2.17q.574 3.064 1.142 6.13l.666 3.587C905 997 905 997 905 999c-4.41 1.438-8.348 2.306-13 2-3.39-2.516-5.422-5.712-7.737-9.208-2.392-3.393-5.201-6.438-7.95-9.542a2640 2640 0 0 1-3.2-3.672l-1.544-1.771A1451 1451 0 0 1 864 968c.508 7.846 1.779 15.287 3.563 22.938q.695 3.012 1.378 6.027l.616 2.644C870 1002 870 1002 870 1006c-4.058.984-7.835 1.04-12 1l-.703-3.804q-1.3-7.037-2.605-14.073-.563-3.036-1.123-6.072-.81-4.384-1.624-8.766l-.499-2.71a315 315 0 0 0-3.065-14.669c-.466-2.329-.534-4.539-.381-6.906 4.497-1.818 8.16-2.66 13-2 4.79 3.292 8.147 8.362 11.534 13.005 2.029 2.76 4.208 5.366 6.404 7.995l2.117 2.613c2.591 3.18 5.259 6.287 7.945 9.387-.931-8.597-2.652-17.04-4.271-25.53l-.67-3.552-.616-3.226C883 946 883 946 883 943c3.735-.575 7.213-1 11-1M1005 893c4.966 3.201 9.605 6.727 14.25 10.375l4.785 3.738L1029 911a9432 9432 0 0 0 9.688 7.563l2.21 1.73A332 332 0 0 0 1054 930c-3.023 3.255-6.257 5.618-10 8-3.941-1.668-6.79-4.227-10-7-3.751 1.764-7.235 3.939-10.75 6.125l-1.824 1.129q-2.214 1.372-4.426 2.746l1 14-10 6c-2.897-9.938-5.494-19.857-7.543-30.006-1.325-6.523-2.92-12.948-4.625-19.38-.894-3.885-1.4-7.655-1.832-11.614zM684.496 916.695c6.575 2.712 12.737 6.434 16.504 12.555 1.314 4.928 2.37 11.01 0 15.75-3.955-.565-6.902-1.418-10-4a706 706 0 0 1-1-7c-2.889-3.61-5.518-5.798-10-7-3.126-.334-3.126-.334-6 0-2.281 1.875-2.281 1.875-2.375 4.879.465 3.87 1.376 4.663 4.375 7.058l2.484 2.051L681 943c12.654 10.658 12.654 10.658 13.563 16.813-.421 5.63-2.2 10.845-6.258 14.867-5.196 3.723-10.076 4.193-16.305 3.32-7.947-1.632-14.861-5.7-20.437-11.562-3.504-5.466-4.078-10.038-3.563-16.438l1-3c3.916.783 7.364 2.392 11 4l-.312 3.125c.32 3.965 1.025 5.707 3.761 8.582 3.918 3.267 7.32 4.354 12.364 4.106 3.256-.542 3.256-.542 5.187-2.813.543-2.398.543-2.398 0-5-1.9-2.326-1.9-2.326-4.5-4.375l-2.758-2.355L671 950c-11.304-9.445-11.304-9.445-12.41-15.094-.41-6.132 1.486-10.271 5.41-14.906 5.608-5.472 13.242-5.325 20.496-3.305"/><path fill="#F7F9FC" d="m479 481-2 12c8.267 2.444 16.54 4.87 24.82 7.266l2.077.601q4.185 1.212 8.368 2.42 2.984.862 5.965 1.725l3.513 1.014c3.109.93 6.185 1.93 9.257 2.974a179 179 0 0 1-4 4l-1.672 1.734c-3.478 1.89-6.232.758-9.828-.297l-2.14-.579c-5.348-1.476-10.602-3.209-15.81-5.124-2.643-.76-4.814-.872-7.55-.734-2.78 7.828-2.78 7.828-3 16 1.853 2.56 2.938 2.98 6 4 8.909.962 16.576-1.328 25-4 1.33-.347 2.662-.688 4-1 .313 2.313.313 2.313 0 5-3.294 2.324-6.717 3.776-10.5 5.125l-2.781 1.008c-5.096 1.625-9.804 2.077-15.156 2.18l-3.872.113c-4.298-.496-6.363-1.717-9.691-4.426-3.058-4.484-3.746-8.682-3-14 .655-2.34 1.428-4.599 2.266-6.879.923-2.668 1.376-5.326 1.734-8.121l-8-1-.339 1.8a265 265 0 0 1-4.474 19.2l-.712 2.848c-1.85 6.746-1.85 6.746-4.967 8.77-2.878.438-5.602.517-8.508.382.696-6.416 2.409-12.432 4.188-18.625l.935-3.299q1.433-5.04 2.877-10.076l1.797-6.309Q465.892 489.344 468 482c3.909-.92 6.823-1 11-1"/><path fill="#FBFBFD" d="M640.938 892.078c7.184 3.987 13.526 9.966 16.062 17.922.266 2.719.266 2.719.25 5.5l.016 2.781c-.283 2.897-1.062 5.083-2.266 7.719-4.043-1.386-7.118-2.798-10-6-.434-2.537-.567-5.021-.707-7.59-.421-3.467-1.715-5.118-4.293-7.41-3.965-2.25-7.497-2.474-12-2-6.283 3.206-10.404 8.234-13.875 14.25-1.501 5.004-1.854 9.569-1.125 14.75 2.02 3.535 4.084 5.77 8 7 5.21.474 7.646-.293 12-3 3.173.415 5.218 1.664 7.75 3.563l1.86 1.378L644 942c-5.416 5.894-11.134 8.992-19.125 9.375-7.404-.11-13.5-3.795-18.812-8.75-6.105-6.767-6.735-12.78-6.54-21.766 1.297-10.496 7.748-18.987 15.618-25.68 7.666-5.457 16.946-6.35 25.797-3.1"/><path fill="#292983" d="M844 1258h19v72h-19z"/><path fill="#2E3192" d="m940.438 1470.875 2.87-.008c2.395.118 4.384.555 6.692 1.133l1-1c2-.04 4-.043 6 0-.856 8.303-2.237 16.424-3.792 24.62a559 559 0 0 0-.895 4.89c-3.354 18.773-3.354 18.773-10.875 25.928-4.445 2.849-8.587 2.75-13.813 2.812l-3.898.078c-3.998-.352-6.351-1.197-9.727-3.328-2.36-3.541-2.573-4.828-2-9 1.479-2.273 3.115-4.02 5-6 1.875.313 1.875.313 4 1 2.567 3.85 1.833 5.586 1 10 2.876 2.34 2.876 2.34 6.438 1.875 3.997-.982 5.188-1.568 7.562-4.875 1.98-4.157 3-7.35 3-12l-2.437 2.5c-3.386 2.814-6.172 3.237-10.508 2.996C924 1512 924 1512 921.5 1509.687c-3.819-6.842-3.112-14.029-1.25-21.437 2.209-7.293 5.724-11.763 11.75-16.25 3.07-1.023 5.224-1.134 8.438-1.125M940 1475c-5.985 3.672-7.495 7.887-9.309 14.559-.956 4.76-1.663 9.634-.691 14.441l3 2c6.37-4.288 8.366-8.279 10.355-15.652.869-4.511 1.016-8.778.645-13.348zM1258.688 1453.938l3.574.027 2.738.035-.335 1.7q-1.73 8.783-3.455 17.569l-1.29 6.55q-.93 4.717-1.854 9.435l-.58 2.94c-.964 4.924-1.834 9.83-2.486 14.806l3 1v3h-14l-1-4-2.437 2.5c-3.386 2.814-6.172 3.237-10.508 2.996-2.055-.496-2.055-.496-4.555-2.809-3.819-6.842-3.112-14.029-1.25-21.437 2.209-7.293 5.724-11.763 11.75-16.25 4.582-1.527 9.191-1.604 14-2l2-11-3-1v-3c3.422-1.14 6.087-1.098 9.688-1.062M1244 1475c-5.633 3.585-7.428 7.364-9.309 13.715-1.06 5.039-1.613 10.186-.691 15.285l3 2c6.37-4.288 8.366-8.279 10.355-15.652.869-4.511 1.016-8.778.645-13.348zM392 1454l-4 21 6-4c3.118-.732 5.868-.672 9 0 2.563 2 2.563 2 4 5 .428 6.853-.755 13.276-2 20l-.578 3.215A1683 1683 0 0 1 403 1507l3 1v3h-16c.36-1.796.722-3.591 1.094-5.441l1.406-7.121.723-3.58c1.117-5.701 2.119-11.043 1.777-16.858-3.564.891-4.846 1.783-7 4.813-2.817 5.182-3.666 10.883-4.75 16.624l-.668 3.374c-.538 2.727-1.062 5.458-1.582 8.189h-12l.81-4.02q1.493-7.41 2.98-14.822.644-3.202 1.29-6.404.93-4.612 1.854-9.227l.58-2.873c.975-4.874 1.843-9.725 2.486-14.654l-3-1v-3c5.164-1.721 10.593-1.054 16-1M843 1457h36l-2 13h-6l-1-7-12-1-.375 3.938c-.524 4.78-1.488 9.393-2.625 14.062 4.955-.875 4.955-.875 8.438-4.125L864 1474h5c-.515 5.853-1.454 11.33-3 17h-5v-5h-7l-4 20c8.274-.159 8.274-.159 11.375-2.75 1.718-2.252 1.718-2.252 3-5L866 1496h6l-3 15h-35l1-4h2c3.33-15.274 6.206-30.62 9-46l-3-1zM1307.438 1470.875l2.87-.008c2.395.118 4.384.555 6.692 1.133l1-1c2-.04 4-.043 6 0-.73 7.782-2.106 15.386-3.562 23.063l-.71 3.779A4887 4887 0 0 1 1318 1507l3 1v3h-14l-1-4-2.437 2.5c-3.386 2.814-6.172 3.237-10.508 2.996-2.055-.496-2.055-.496-4.555-2.809-3.819-6.842-3.112-14.029-1.25-21.437 2.209-7.293 5.724-11.763 11.75-16.25 3.07-1.023 5.224-1.134 8.438-1.125M1307 1475c-5.633 3.585-7.428 7.364-9.309 13.715-1.06 5.039-1.613 10.186-.691 15.285l3 2c6.37-4.288 8.366-8.279 10.355-15.652.869-4.511 1.016-8.778.645-13.348zM670.438 1470.875l2.87-.008c2.395.118 4.384.555 6.692 1.133l1-1c2-.04 4-.043 6 0-.73 7.782-2.106 15.386-3.562 23.063l-.71 3.779A4887 4887 0 0 1 681 1507l3 1v3h-14l-1-4-2.437 2.5c-3.386 2.814-6.172 3.237-10.508 2.996C654 1512 654 1512 651.5 1509.687c-3.819-6.842-3.112-14.029-1.25-21.437 2.209-7.293 5.724-11.763 11.75-16.25 3.07-1.023 5.224-1.134 8.438-1.125M670 1475c-5.633 3.585-7.428 7.364-9.309 13.715-1.06 5.039-1.613 10.186-.691 15.285l3 2c6.37-4.288 8.366-8.279 10.355-15.652.869-4.511 1.016-8.778.645-13.348zM1213 1471c2.563 1.313 2.563 1.313 4 4 1.176 7.66-.665 15.17-2.344 22.617-.57 2.937-.913 5.411-.656 8.383 1.396 1.815 1.396 1.815 3 3l-1 2h-15c.443-5.844 1.247-11.347 2.563-17.062 1.237-5.495 1.727-10.324 1.437-15.938-3.84 1.509-5.65 3.65-8 7-1.072 2.966-1.072 2.966-1.703 6.176l-.781 3.506-.766 3.63-.812 3.69q-.988 4.495-1.938 8.998h-11c.71-7.627 2.079-15.051 3.563-22.562l.708-3.635q.86-4.403 1.729-8.803l-3-1v-3h15v4l2.438-2.5c3.916-3.266 7.656-3.45 12.562-2.5M1015 1471c2.563 1.313 2.563 1.313 4 4 1.176 7.66-.665 15.17-2.344 22.617-.57 2.937-.913 5.411-.656 8.383 1.396 1.815 1.396 1.815 3 3l-1 2h-15c.443-5.844 1.247-11.347 2.563-17.062 1.237-5.495 1.727-10.324 1.437-15.938-3.84 1.509-5.65 3.65-8 7-1.072 2.966-1.072 2.966-1.703 6.176l-.781 3.506-.766 3.63-.812 3.69q-.988 4.495-1.938 8.998h-11c.71-7.627 2.079-15.051 3.563-22.562l.708-3.635q.86-4.403 1.729-8.803l-3-1v-3h15v4l2.438-2.5c3.916-3.266 7.656-3.45 12.562-2.5M910 1471c2.563 1.313 2.563 1.313 4 4 1.176 7.66-.665 15.17-2.344 22.617-.57 2.937-.913 5.411-.656 8.383 1.396 1.815 1.396 1.815 3 3l-1 2h-15c.443-5.844 1.247-11.347 2.563-17.062 1.237-5.495 1.727-10.324 1.437-15.938-3.84 1.509-5.65 3.65-8 7-1.072 2.966-1.072 2.966-1.703 6.176l-.781 3.506-.766 3.63-.812 3.69q-.988 4.495-1.938 8.998h-11c.71-7.627 2.079-15.051 3.563-22.562l.708-3.635q.86-4.403 1.729-8.803l-3-1v-3h15v4l2.438-2.5c3.916-3.266 7.656-3.45 12.562-2.5M811 1471c2.563 1.313 2.563 1.313 4 4 1.176 7.66-.665 15.17-2.344 22.617-.57 2.937-.913 5.411-.656 8.383 1.396 1.815 1.396 1.815 3 3l-1 2h-15c.443-5.844 1.247-11.347 2.563-17.062 1.237-5.495 1.727-10.324 1.437-15.938-3.84 1.509-5.65 3.65-8 7-1.072 2.966-1.072 2.966-1.703 6.176l-.781 3.506-.766 3.63-.812 3.69q-.988 4.495-1.938 8.998h-11c.71-7.627 2.079-15.051 3.563-22.562l.708-3.635q.86-4.403 1.729-8.803l-3-1v-3h15v4l2.438-2.5c3.916-3.266 7.656-3.45 12.562-2.5M565 1471c2.563 1.313 2.563 1.313 4 4 1.176 7.66-.665 15.17-2.344 22.617-.57 2.937-.913 5.411-.656 8.383 1.396 1.815 1.396 1.815 3 3l-1 2h-15c.443-5.844 1.247-11.347 2.563-17.062 1.237-5.495 1.727-10.324 1.437-15.938-3.84 1.509-5.65 3.65-8 7-1.072 2.966-1.072 2.966-1.703 6.176l-.781 3.506-.766 3.63-.812 3.69q-.988 4.495-1.938 8.998h-11c.71-7.627 2.079-15.051 3.563-22.562l.708-3.635q.86-4.403 1.729-8.803l-3-1v-3h15v4l2.438-2.5c3.916-3.266 7.656-3.45 12.562-2.5M522 1471c2.563 1.313 2.563 1.313 4 4 1.176 7.66-.665 15.17-2.344 22.617-.57 2.937-.913 5.411-.656 8.383 1.396 1.815 1.396 1.815 3 3l-1 2h-15c.443-5.844 1.247-11.347 2.563-17.062 1.237-5.495 1.727-10.324 1.437-15.938-3.84 1.509-5.65 3.65-8 7-1.072 2.966-1.072 2.966-1.703 6.176l-.781 3.506-.766 3.63-.812 3.69q-.988 4.495-1.938 8.998h-11c.71-7.627 2.079-15.051 3.563-22.562l.708-3.635q.86-4.403 1.729-8.803l-3-1v-3h15v4l2.438-2.5c3.916-3.266 7.656-3.45 12.562-2.5M1142.688 1453.938l3.574.027 2.738.035-1 9h-6l-1-5c-3.76 2.506-3.726 3.82-4.687 8.125l-.762 3.32L1135 1472h6v5h-8l-.12 1.907c-.597 7.914-2.025 15.53-3.693 23.28l-.751 3.694c-3.62 16.977-3.62 16.977-11.436 22.119-2.525 1.262-4.312 1.099-7.125 1.063l-2.758-.028L1105 1529l1-5 2.875-.64c3.281-1.036 3.281-1.036 4.375-3.782l.75-3.328.44-1.873c.559-2.452 1.06-4.912 1.56-7.377l.752-3.646A2310 2310 0 0 0 1122 1477l-4-1c1.375-1.5 1.375-1.5 3-3h2l.297-1.758c1.183-6.182 2.893-10.773 7.765-15.054 3.885-2.381 7.174-2.295 11.626-2.25M337.785 1456.886q2.531 0 5.063.016l2.686.005c2.843.005 5.686.018 8.529.03q2.883.009 5.767.014 7.085.017 14.17.049-.462 3.22-.937 6.437l-.528 3.622C372 1470 372 1470 371 1471c-1.666.04-3.334.043-5 0l-.687-3.375c-.895-3.797-.895-3.797-3.895-4.852L359 1462l-.347 2.177c-1.409 8.655-3.113 17.232-4.885 25.82-1.153 5.66-2.15 11.258-2.768 17.003l3 1v3h-20v-3l1.853-1.081c3.48-3.11 3.657-7.159 4.506-11.618l.589-2.88c.616-3.033 1.209-6.07 1.802-9.109q.621-3.087 1.246-6.173c1.018-5.043 2.016-10.09 3.004-15.139-5.147 1.764-5.147 1.764-8.562 5.687L337 1470c-3.09.145-3.09.145-6 0q.462-2.97.938-5.938l.527-3.34c.818-4.16.834-3.701 5.32-3.836"/><path fill="#203E92" d="M939 941c6.4 3.918 9.848 10.304 11.621 17.531.758 4.937 1.132 9.587-.746 14.282-3.707 4.324-7.71 6.25-13.09 7.804l-2.718.793L932 982q-2.332-6.24-4.645-12.488-.787-2.122-1.58-4.242-1.142-3.059-2.271-6.122l-1.38-3.713c-1.035-3.163-1.681-6.143-2.124-9.435l4.813-1.937 2.707-1.09c4.08-1.6 7.084-2.49 11.48-1.973"/><path fill="#0577BE" d="M646 296c2.496 3.618 4.568 7.49 6.69 11.336a458 458 0 0 0 3.212 5.676 1602 1602 0 0 1 2.02 3.629l1.862 3.329c1.34 3.34 1.369 4.678.216 8.03-3.37 6.377-7.355 12.46-13 17-2.625.688-2.625.688-5 0-2.537-2.4-3.848-3.988-4.371-7.473.371-2.527.371-2.527 2.2-4.293l2.421-1.484 2.39-1.516c2.156-1.127 3.984-1.776 6.36-2.234-2.103-2.687-2.103-2.687-5-5-4.243-.193-6.92 1.5-10.437 3.625-3.07 1.807-4.994 2.748-8.563 2.25-3-.875-3-.875-4-1.875-.32-2.367-.32-2.367 0-5 1.758-1.695 1.758-1.695 4.125-3.125l2.473-1.516c2.764-1.564 5.519-3.028 8.402-4.359-.57-3.994-1.929-6.578-4-10v-3q2.147-1.298 4.313-2.562l2.425-1.442C643 295 643 295 646 296"/><path fill="#2E3192" d="M1106.04 1471.762c3.06 1.908 4.702 3.923 5.96 7.238.874 8.638.887 17.513-4 25-3.907 4.284-7.539 7.721-13.523 8.203-9.635.159-9.635.159-13.477-3.203-3.73-4.129-4.364-7.998-4.281-13.52.907-7.999 3.22-15.997 9.281-21.48 5.496-4.021 13.653-4.624 20.04-2.238m-11.477 5.238c-5.367 6.283-6.691 14.017-6.813 22.125l-.078 3.133c.086 2.783.086 2.783 1.844 4.61L1091 1508c2.696-.599 4.484-1.3 6.152-3.562 4.043-7.567 6.015-16.882 4.848-25.438-1.183-2.56-1.183-2.56-3-4-2.268-.211-2.268-.211-4.437 2M767.04 1471.762c3.06 1.908 4.702 3.923 5.96 7.238.874 8.638.887 17.513-4 25-3.907 4.284-7.539 7.721-13.523 8.203-9.635.159-9.635.159-13.477-3.203-3.73-4.129-4.364-7.998-4.281-13.52.907-7.999 3.22-15.997 9.281-21.48 5.496-4.021 13.653-4.624 20.04-2.238M755.562 1477c-5.367 6.283-6.691 14.017-6.813 22.125l-.078 3.133c.086 2.783.086 2.783 1.844 4.61L752 1508c2.696-.599 4.484-1.3 6.152-3.562 4.043-7.567 6.015-16.882 4.848-25.438-1.183-2.56-1.183-2.56-3-4-2.268-.211-2.268-.211-4.437 2M603.04 1471.762c3.06 1.908 4.702 3.923 5.96 7.238.874 8.638.887 17.513-4 25-3.907 4.284-7.539 7.721-13.523 8.203-9.635.159-9.635.159-13.477-3.203-3.73-4.129-4.364-7.998-4.281-13.52.907-7.999 3.22-15.997 9.281-21.48 5.496-4.021 13.653-4.624 20.04-2.238M591.562 1477c-5.367 6.283-6.691 14.017-6.813 22.125l-.078 3.133c.086 2.783.086 2.783 1.844 4.61L588 1508c2.696-.599 4.484-1.3 6.152-3.562 4.043-7.567 6.015-16.882 4.848-25.438-1.183-2.56-1.183-2.56-3-4-2.268-.211-2.268-.211-4.437 2M1054 1471c3.25 2 3.25 2 5 5 .8 5.043.641 6.904-1.937 11.313-3.95 4.083-9.094 5.485-14.645 5.863-2.14.01-4.28-.074-6.418-.176.114 1.626.242 3.25.375 4.875.07.905.14 1.81.21 2.742.21 2.562.21 2.562 2.415 4.383 5.3-.2 8.148-1.381 12-5l4 2v3c-5.103 4.755-8.78 7.285-15.937 7.313l-3.09.05c-3.41-.416-5.24-1.309-7.973-3.363-4.06-7.139-3.65-14.048-1.758-21.762 2.024-5.978 5.443-10.783 10.758-14.238 5.564-2.62 10.951-2.794 17-2m-12.535 7.29c-2.637 3.079-3.503 6.836-4.465 10.71 6.972-1.283 6.972-1.283 12-6 .983-2.497.983-2.497 1-5l-2-3c-2.876 0-4.408 1.49-6.535 3.29M442 1471c3.25 2 3.25 2 5 5 .8 5.043.641 6.904-1.937 11.313-3.95 4.083-9.094 5.485-14.645 5.863-2.14.01-4.28-.074-6.418-.176.114 1.626.242 3.25.375 4.875.07.905.14 1.81.21 2.742.21 2.562.21 2.562 2.415 4.383 5.3-.2 8.148-1.381 12-5l4 2v3c-5.103 4.755-8.78 7.285-15.937 7.313l-3.09.05c-3.41-.416-5.24-1.309-7.973-3.363-4.06-7.139-3.65-14.048-1.758-21.762 2.024-5.978 5.443-10.783 10.758-14.238 5.564-2.62 10.951-2.794 17-2m-12.535 7.29c-2.637 3.079-3.503 6.836-4.465 10.71 6.972-1.283 6.972-1.283 12-6 .983-2.497.983-2.497 1-5l-2-3c-2.876 0-4.408 1.49-6.535 3.29"/><path fill="#F7F7FB" d="M826 949h12c.805 7.177 1.196 14.258 1.316 21.477l.063 3.185q.096 4.982.183 9.963l.131 6.8q.16 8.287.307 16.575h-12c-1.307-2.613-1.213-4.664-1.316-7.59l-.128-3.53-.119-3.817-.128-3.89c-.397-13.058-.403-26.11-.309-39.173"/><path fill="#FAFBFC" d="M971 914c17.451 36.877 17.451 36.877 24 52-3.85 2.984-7.013 5-12 5-14.872-31.55-14.872-31.55-19.937-42.812l-.979-2.146C960.807 923.172 960 921.18 960 918a875 875 0 0 1 4.375-2l2.46-1.125C969 914 969 914 971 914"/><path fill="#FBFBFD" d="M719 933c1.648.449 3.294.91 4.938 1.375l2.777.773C729 936 729 936 730 938c-.563 2.253-.563 2.253-1.539 5.092l-1.092 3.215-1.209 3.482c-.4 1.174-.802 2.347-1.215 3.556a3212 3212 0 0 1-3.22 9.361c-1.098 3.182-2.188 6.367-3.278 9.552A8255 8255 0 0 1 712 991c-4.318-.508-8.033-1.197-12-3 2.426-9.919 5.79-19.532 9.098-29.182q1.455-4.256 2.896-8.517.926-2.714 1.854-5.426l.868-2.566.82-2.38.712-2.086C717 936 717 936 719 933"/><path fill="#2E3192" d="M1162 1457h19c-1 4-1 4-2.448 6.252-1.944 3.442-2.647 6.879-3.376 10.717l-.458 2.297a861 861 0 0 0-.935 4.79c-.47 2.438-.954 4.873-1.441 7.307q-.46 2.334-.916 4.668l-.436 2.194c-1.025 5.355-1.025 5.355-.99 10.775l2 2v3h-19l1-4h2c3.33-15.274 6.206-30.62 9-46l-3-1zM472 1457h19c-1 4-1 4-2.448 6.252-1.944 3.442-2.647 6.879-3.376 10.717l-.458 2.297a861 861 0 0 0-.935 4.79c-.47 2.438-.954 4.873-1.441 7.307q-.46 2.334-.916 4.668l-.436 2.194c-1.025 5.355-1.025 5.355-.99 10.775l2 2v3h-19l1-4h2c3.33-15.274 6.206-30.62 9-46l-3-1zM614 1472q3.219-.04 6.438-.062l3.62-.036C627 1472 627 1472 628 1473c.228 1.85.395 3.708.535 5.566l.264 3.409.264 3.588.275 3.6q.337 4.417.662 8.837 1.196-1.887 2.387-3.777l1.342-2.125c3.292-5.435 4.752-9.73 4.271-16.098l-1-4h11c1.103 5.514.238 7.522-2.25 12.188l-1.069 2.07c-11.17 21.23-11.17 21.23-15.681 25.742-1.812.133-1.812.133-4 .125l-2.187.008C621 1512 621 1512 620 1511a211 211 0 0 1-.867-7.43l-.496-4.597q-.388-3.637-.757-7.275a869 869 0 0 0-.747-7.003c-.07-.725-.138-1.45-.209-2.197-.34-3.006-.587-5.073-2.495-7.479L613 1474zM701 1462h9l-1 10h8l-1 5h-9l-.312 3.438c-.352 3.326-.864 6.59-1.493 9.874l-.436 2.303a371 371 0 0 1-.918 4.62c-.365 1.907-.613 3.836-.841 5.765l2 2 5-4 4 2c-.34 3.17-.999 3.999-3.437 6.188-3.43 2.426-5.277 3.007-9.438 3.124l-2.617.114c-3.386-.575-4.492-1.678-6.508-4.426-2.071-10.144 1.531-21.18 4-31h-4v-3l2.813-1.687c4.22-3.062 4.713-5.4 6.187-10.313"/><path fill="#F2F6FB" d="M909 321h5l1.285 2.816c5.793 12.427 5.793 12.427 16.715 20.184 2.592.24 2.592.24 5.25.125l2.703-.055L942 344l2-8h-10l-4-8c3.726-2.484 5.587-2.38 10-2 4.915 2.172 7.675 5.615 10.25 10.25 1.083 3.97 1.495 7.677.75 11.75-2.576 3.253-4.815 5.706-9.031 6.273-8.085.333-13.88-1.86-20.094-7.046-4.529-4.618-7.52-9.889-10.437-15.602l-1.089-2.128c-2.476-5.115-2.476-5.115-1.349-8.497"/><path fill="#2E3192" d="M1267 1472h16l-1.312 6.676q-.627 3.202-1.251 6.404-.435 2.224-.874 4.45-.629 3.196-1.25 6.396l-.762 3.888c-.636 3.14-.636 3.14-.551 6.186l3 2v3h-16c.71-7.627 2.079-15.051 3.563-22.562l.708-3.635q.86-4.403 1.729-8.803l-3-1zM963 1472h16l-1.312 6.676q-.627 3.202-1.251 6.404-.435 2.224-.874 4.45-.629 3.196-1.25 6.396l-.762 3.888c-.636 3.14-.636 3.14-.551 6.186l3 2v3h-16c.71-7.627 2.079-15.051 3.563-22.562l.708-3.635q.86-4.403 1.729-8.803l-3-1zM719 1472h16l-1.312 6.676q-.627 3.202-1.251 6.404-.435 2.224-.874 4.45-.629 3.196-1.25 6.396l-.762 3.888c-.636 3.14-.636 3.14-.551 6.186l3 2v3h-16c.71-7.627 2.079-15.051 3.563-22.562l.708-3.635q.86-4.403 1.729-8.803l-3-1z"/><path fill="#0767B0" d="M1186.813 494.563c3.464.088 4.137.399 7.062 2.625 5.36 7.095 4.933 15.295 4.125 23.812-.877 5.44-2.168 10.804-4 16l-2 1c-3.917-11.896-7.364-23.753-10-36l-.73-2.852L1181 497c2-2 2-2 5.813-2.437"/><path fill="#057DC3" d="M726 249c-3.199 1.647-6.296 2.783-9.75 3.813l-3.457 1.046L709 255q-4.222 1.271-8.437 2.563l-2.005.598c-3.118.958-5.938 2.032-8.851 3.51-3.129 1.536-4.45 1.383-7.707.329-.81-3.064-1.29-5.83-1-9 9.817-14.277 31.277-7.062 45-4"/><path fill="#0578BF" d="M1002 296c3.79 1.427 7.271 3.162 10.813 5.125l2.957 1.633L1018 304c-.603 4.507-2.366 7.859-4.562 11.813l-.999 1.81A749 749 0 0 1 1010 322c-11.724-1.935-11.724-1.935-15-5-1.152-4.18-1.348-6.932.652-10.746a142 142 0 0 1 2.285-3.692l1.17-1.927A305 305 0 0 1 1002 296"/><path fill="#FECC08" d="M813.813 519.563c3.588.071 4.137.397 7.125 2.812 3.693 4.701 3.726 8.772 3.062 14.625-1.997 3.855-3.397 5.598-7 8-2.875.438-2.875.438-6 0-3.127-2.559-5.775-5.103-7-9-.596-6.162-.016-9.039 4-14 2-2 2-2 5.813-2.437"/><path fill="#056BB3" d="M1154 457c.869 1.575 1.72 3.16 2.563 4.75l1.44 2.672c1.124 2.907 1.16 3.75-.003 6.578-2.846 2.082-6.115 3.404-9.312 4.875l-2.631 1.297-2.545 1.195-2.33 1.097c-2.182.536-2.182.536-4.32-.256-2.448-1.588-4.125-2.828-5.862-5.208-.125-3.5-.125-3.5 1-7 2.084-1.91 3.5-2.788 6-4l3.184-1.574C1150.438 457 1150.438 457 1154 457"/><path fill="#FAFAFC" d="M578 869c3.348 1.738 5.438 3.095 7.438 6.313.759 3.626.522 6.103-.438 9.687-2.057 3.022-3.5 4.69-7.156 5.445-4.105.206-6.305-.108-9.844-2.32-3.148-3.344-3.231-5.584-3.148-10.16.19-2.509.595-3.968 2.148-5.965 3.675-2.858 6.382-3.66 11-3"/><path fill="#FBFBFD" d="M1070 869c3.494 1.668 4.827 2.74 7 6 .74 4.593.61 8.025-1.875 12-3.547 3.338-6.22 3.33-10.93 3.293C1062 890 1062 890 1059.5 888.125c-2.978-4.22-3.306-8.05-2.5-13.125 3.952-4.992 6.698-6.494 13-6"/><path fill="#254294" d="M750 952c4.491.51 8.845 1.354 13.25 2.375 1.016.235 2.032.47 3.078.71 2.735.937 3.968 1.612 5.672 3.915.552 3.63.211 5.559-1.375 8.875-3.433 2.78-5.567 2.645-9.875 2.434-4.317-.485-8.526-1.303-12.75-2.309q.212-3.438.438-6.875c.08-1.276.162-2.552.246-3.867C749 954 749 954 750 952"/><path fill="#0F4E9D" d="M527 795c6.887 1.609 13.134 3.62 18 9 1.313 3.563 1.313 3.563 1 7-2.375 2.875-2.375 2.875-5 5l-1 1c-3.06.51-5.161.487-7.883-1.094-4.364-3.433-6.23-6.287-7.117-11.906-.25-3.812-.25-3.812 0-7z"/><path fill="#F3F3F9" d="M795.879 978.867c6.465.014 12.732.11 19.121 1.133v11c-18.465.268-18.465.268-23-2q-.04-2.22-.062-4.437l-.036-2.497c.155-3.267.662-3.046 3.977-3.199"/><path fill="#0C60AA" d="M481.313 612.5c2.687.5 2.687.5 4.687 3.313 2.682 4.684 3.138 9.932 2 15.187-1.812 1.828-1.812 1.828-4 3-4.193 0-6.253-.349-9.437-3.125-2.03-3.734-2.205-5.664-1.563-9.875 1.873-4.542 3.24-7.734 8.313-8.5"/><path fill="#067BC2" d="M775 268c2.734 1.308 4.93 2.778 7 5 .75 2.563.75 2.563 0 5-3.863 3.863-7.7 5.672-13.062 6.438C766 284 766 284 763.625 281.875c-1.938-3.43-2.43-5.007-1.625-8.875 4.014-4.503 6.804-6.087 13-5"/><path fill="#2E3192" d="M1112 1331q3.969-.04 7.938-.062l2.287-.026c1.925-.009 3.85.036 5.775.088 1 1 1 1 1.133 3.688l-.008 3.312.008 3.313C1129 1344 1129 1344 1128 1345c-2.697.073-5.367.092-8.062.063l-2.3-.014q-2.818-.02-5.638-.049z"/><path fill="#0762AC" d="M1177 562c-1.97 2.69-3.977 5.35-6 8l-1.559 2.09c-3.698 4.698-3.698 4.698-7.066 5.66-3.496-1.104-4.562-2.593-6.375-5.75-.25-3.812-.25-3.812 0-7 7.303-2.148 13.42-3.149 21-3"/><path fill="#F5F7FB" d="m1162 645 8 1q-.466 3.813-.937 7.625l-.264 2.16A246 246 0 0 1 1167 668h-8c.425-7.867 1.025-15.362 3-23"/><path fill="#254898" d="M1007 909c4.39 2.82 8.4 5.874 12.375 9.25l1.652 1.39q1.99 1.677 3.973 3.36c-3.439 3.605-6.6 5.718-11 8h-2q-1.255-4.936-2.5-9.875l-.723-2.84-.683-2.715-.635-2.507C1007 911 1007 911 1007 909"/><path fill="#F1A921" d="M816 520c5 2 5 2 6.813 4 1.73 4.374 1.87 8.359 1.187 13-1.997 3.855-3.397 5.598-7 8-3.187.125-3.187.125-6 0v-1h5z"/><path fill="#0F70B6" d="M489.75 459.625c4.105.474 6.131 1.691 9.25 4.375.875 2.75.875 2.75 1 5-3.788 2.674-6.355 3.692-11 3-2.375-1.625-2.375-1.625-4-4-.375-3.125-.375-3.125 0-6 2-2 2-2 4.75-2.375"/><path fill="#0D64AD" d="m1184 563 2 1c.414 2.723.414 2.723.625 6.063l.227 3.347.148 2.59q-2.373.506-4.75 1l-2.672.563C1177 578 1177 578 1173 578c1.628-3.757 4.014-6.617 6.625-9.75l2.477-2.984z"/><path fill="#2E3192" d="M1275 1456h10c-.875 8.875-.875 8.875-2 10-3.336.143-6.66.042-10 0zM971 1456h10c-.875 8.875-.875 8.875-2 10-3.336.143-6.66.042-10 0zM727 1456h10c-.875 8.875-.875 8.875-2 10-3.336.143-6.66.042-10 0z"/><path fill="#EEF4FA" d="M1038 281v9l-9 1v-9c3.196-1.065 5.657-1.074 9-1"/><path fill="#F2DE11" d="M808 522h1v20h-2c-2.82-4.701-4.005-8.61-3-14 1.11-2.358 2.32-3.963 4-6"/><path fill="#1C62AA" d="M1181 691a88 88 0 0 1 1 5l-1 1a84 84 0 0 1-5.062-.437l-2.786-.31L1171 696c0-3 0-3 1.063-4.75 3.034-1.958 5.538-.956 8.937-.25"/><path fill="#147DC1" d="M1049.25 324.25c1.75.75 1.75.75 2.5 2.5.25 2.25.25 2.25-1.375 4.563C1048 333 1048 333 1045.25 332.75L1043 332c0-4 0-4 1.75-6.312 2.25-1.688 2.25-1.688 4.5-1.438"/></svg>